<svg width="398" height="139" xmlns="http://www.w3.org/2000/svg" xmlns:svg="http://www.w3.org/2000/svg">
 <g>
  <title>Layer 1</title>
  <g id="svgg">
   <path fill-rule="evenodd" fill="#b58f43" d="m275.776,1.204c0.385,0.1 1.015,0.1 1.4,0c0.385,-0.101 0.07,-0.183 -0.7,-0.183c-0.77,0 -1.085,0.082 -0.7,0.183m57.62,30.124c0,1.21 0.075,1.705 0.167,1.1c0.091,-0.605 0.091,-1.595 0,-2.2c-0.092,-0.605 -0.167,-0.11 -0.167,1.1m-46.02,7.076c0.385,0.1 1.015,0.1 1.4,0c0.385,-0.101 0.07,-0.183 -0.7,-0.183c-0.77,0 -1.085,0.082 -0.7,0.183m-54.8,5.211c0.605,0.091 1.595,0.091 2.2,0c0.605,-0.092 0.11,-0.167 -1.1,-0.167c-1.21,0 -1.705,0.075 -1.1,0.167m-21.009,0.402c0.71,0.088 1.97,0.09 2.8,0.003c0.83,-0.087 0.249,-0.159 -1.291,-0.161c-1.54,-0.002 -2.219,0.069 -1.509,0.158m135.138,6.74c-0.148,0.586 -0.191,1.143 -0.097,1.237c0.095,0.094 0.292,-0.308 0.439,-0.895c0.148,-0.586 0.191,-1.143 0.097,-1.237c-0.095,-0.094 -0.292,0.308 -0.439,0.895m-222.929,1.258c0.605,0.091 1.595,0.091 2.2,0c0.605,-0.092 0.11,-0.167 -1.1,-0.167c-1.21,0 -1.705,0.075 -1.1,0.167m-5.952,4.113c0,2.31 0.066,3.255 0.147,2.1c0.081,-1.155 0.081,-3.045 0,-4.2c-0.081,-1.155 -0.147,-0.21 -0.147,2.1m155.759,-2.91c0.719,0.089 1.799,0.087 2.4,-0.004c0.601,-0.091 0.013,-0.164 -1.307,-0.162c-1.32,0.002 -1.812,0.077 -1.093,0.166m43.798,0.397c0.609,0.092 1.509,0.09 2,-0.005c0.492,-0.095 -0.005,-0.171 -1.105,-0.168c-1.1,0.003 -1.503,0.081 -0.895,0.173m-19.798,0.403c0.719,0.089 1.799,0.087 2.4,-0.004c0.601,-0.091 0.013,-0.164 -1.307,-0.162c-1.32,0.002 -1.812,0.077 -1.093,0.166m54.193,0.401c0.825,0.087 2.175,0.087 3,0c0.825,-0.086 0.15,-0.157 -1.5,-0.157c-1.65,0 -2.325,0.071 -1.5,0.157m6.805,-0.004c0.609,0.092 1.509,0.09 2,-0.005c0.492,-0.095 -0.005,-0.171 -1.105,-0.168c-1.1,0.003 -1.503,0.081 -0.895,0.173m-6.205,1.195c0.495,0.096 1.305,0.096 1.8,0c0.495,-0.095 0.09,-0.173 -0.9,-0.173c-0.99,0 -1.395,0.078 -0.9,0.173m-318.576,3.918c0.002,1.32 0.077,1.812 0.166,1.093c0.089,-0.719 0.087,-1.799 -0.004,-2.4c-0.091,-0.601 -0.164,-0.013 -0.162,1.307m237.476,1.555c0,0.085 0.54,0.233 1.2,0.33c0.66,0.097 1.2,0.028 1.2,-0.154c0,-0.182 -0.54,-0.331 -1.2,-0.331c-0.66,0 -1.2,0.07 -1.2,0.155m-161.063,4.445c0.002,1.76 0.072,2.43 0.156,1.489c0.085,-0.94 0.084,-2.38 -0.002,-3.2c-0.086,-0.819 -0.155,-0.049 -0.154,1.711m17.577,2.8c0.003,1.1 0.081,1.503 0.173,0.895c0.092,-0.609 0.09,-1.509 -0.005,-2c-0.095,-0.492 -0.171,0.005 -0.168,1.105m-51.221,1c0,0.77 0.082,1.085 0.183,0.7c0.1,-0.385 0.1,-1.015 0,-1.4c-0.101,-0.385 -0.183,-0.07 -0.183,0.7m80.841,2c0,1.65 0.071,2.325 0.157,1.5c0.087,-0.825 0.087,-2.175 0,-3c-0.086,-0.825 -0.157,-0.15 -0.157,1.5m-149.234,-0.924c0.385,0.1 1.015,0.1 1.4,0c0.385,-0.101 0.07,-0.183 -0.7,-0.183c-0.77,0 -1.085,0.082 -0.7,0.183m76.409,3.324c0,0.99 0.078,1.395 0.173,0.9c0.096,-0.495 0.096,-1.305 0,-1.8c-0.095,-0.495 -0.173,-0.09 -0.173,0.9m302.196,-0.917c0.497,0.096 1.217,0.092 1.6,-0.008c0.382,-0.1 -0.025,-0.179 -0.905,-0.174c-0.88,0.004 -1.193,0.086 -0.695,0.182m-34.191,7.517c0.003,1.1 0.081,1.503 0.173,0.895c0.092,-0.609 0.09,-1.509 -0.005,-2c-0.095,-0.492 -0.171,0.005 -0.168,1.105m-319.194,1.4c0,1.21 0.075,1.705 0.167,1.1c0.091,-0.605 0.091,-1.595 0,-2.2c-0.092,-0.605 -0.167,-0.11 -0.167,1.1m28.394,-0.2c0.003,1.1 0.081,1.503 0.173,0.895c0.092,-0.609 0.09,-1.509 -0.005,-2c-0.095,-0.492 -0.171,0.005 -0.168,1.105m22.387,1.6c0.004,0.88 0.086,1.193 0.182,0.695c0.096,-0.497 0.092,-1.217 -0.008,-1.6c-0.1,-0.382 -0.179,0.025 -0.174,0.905m62.827,2.6c0,1.43 0.073,2.015 0.161,1.3c0.089,-0.715 0.089,-1.885 0,-2.6c-0.088,-0.715 -0.161,-0.13 -0.161,1.3m-29.627,3c0.004,0.88 0.086,1.193 0.182,0.695c0.096,-0.497 0.092,-1.217 -0.008,-1.6c-0.1,-0.382 -0.179,0.025 -0.174,0.905m254.299,4c0,0.55 0.155,1 0.345,1c0.189,0 0.258,-0.45 0.153,-1c-0.105,-0.55 -0.26,-1 -0.345,-1c-0.084,0 -0.153,0.45 -0.153,1m-18.658,2.8c-0.001,1.98 0.066,2.84 0.15,1.912c0.084,-0.928 0.085,-2.548 0.003,-3.6c-0.083,-1.052 -0.152,-0.292 -0.153,1.688m-13.649,-1.4c0,0.77 0.082,1.085 0.183,0.7c0.1,-0.385 0.1,-1.015 0,-1.4c-0.101,-0.385 -0.183,-0.07 -0.183,0.7m-306.4,1.2c0,0.77 0.082,1.085 0.183,0.7c0.1,-0.385 0.1,-1.015 0,-1.4c-0.101,-0.385 -0.183,-0.07 -0.183,0.7m94.427,2.4c0,1.21 0.075,1.705 0.167,1.1c0.091,-0.605 0.091,-1.595 0,-2.2c-0.092,-0.605 -0.167,-0.11 -0.167,1.1m211.973,-0.8c0,0.77 0.082,1.085 0.183,0.7c0.1,-0.385 0.1,-1.015 0,-1.4c-0.101,-0.385 -0.183,-0.07 -0.183,0.7m-263.629,0.676c-0.062,1.628 -0.107,1.68 -1.564,1.833l-1.5,0.157l1.513,0.067c1.711,0.076 2.03,-0.353 1.779,-2.395c-0.15,-1.224 -0.169,-1.196 -0.228,0.338m262.45,1.924c0.003,1.1 0.081,1.503 0.173,0.895c0.092,-0.609 0.09,-1.509 -0.005,-2c-0.095,-0.492 -0.171,0.005 -0.168,1.105m-19.614,1.676c0.385,0.1 1.015,0.1 1.4,0c0.385,-0.101 0.07,-0.183 -0.7,-0.183c-0.77,0 -1.085,0.082 -0.7,0.183m10.8,0.011c0.605,0.091 1.595,0.091 2.2,0c0.605,-0.092 0.11,-0.167 -1.1,-0.167c-1.21,0 -1.705,0.075 -1.1,0.167m-236.6,1.609c1.375,0.078 3.625,0.078 5,0c1.375,-0.078 0.25,-0.142 -2.5,-0.142c-2.75,0 -3.875,0.064 -2.5,0.142m-47.38,11.304c0,1.21 0.075,1.705 0.167,1.1c0.091,-0.605 0.091,-1.595 0,-2.2c-0.092,-0.605 -0.167,-0.11 -0.167,1.1m285.68,-0.197c0.914,0.318 3.329,0.406 3.148,0.113c-0.107,-0.174 -0.95,-0.302 -1.872,-0.284c-0.922,0.017 -1.496,0.094 -1.276,0.171m13.931,6.397c0.002,1.54 0.074,2.121 0.161,1.291c0.087,-0.83 0.085,-2.09 -0.003,-2.8c-0.089,-0.71 -0.16,-0.031 -0.158,1.509m-277.731,2.8c0.746,0.77 1.447,1.4 1.557,1.4c0.11,0 -0.411,-0.63 -1.157,-1.4c-0.746,-0.77 -1.447,-1.4 -1.557,-1.4c-0.11,0 0.411,0.63 1.157,1.4m142.934,1.8c0,1.65 0.071,2.325 0.157,1.5c0.087,-0.825 0.087,-2.175 0,-3c-0.086,-0.825 -0.157,-0.15 -0.157,1.5m3.318,-2.484c-0.108,0.174 0.421,0.245 1.176,0.157c0.755,-0.088 1.372,-0.231 1.372,-0.317c0,-0.301 -2.355,-0.153 -2.548,0.16m32.748,1.684l-1.2,0.305l1.076,0.048c0.592,0.026 1.188,-0.133 1.324,-0.353c0.136,-0.22 0.192,-0.379 0.124,-0.353c-0.068,0.026 -0.664,0.185 -1.324,0.353m114.728,4.8c0,1.43 0.073,2.015 0.161,1.3c0.089,-0.715 0.089,-1.885 0,-2.6c-0.088,-0.715 -0.161,-0.13 -0.161,1.3m11.596,2.2c0.002,1.32 0.077,1.812 0.166,1.093c0.089,-0.719 0.087,-1.799 -0.004,-2.4c-0.091,-0.601 -0.164,-0.013 -0.162,1.307m-3.724,-0.024c0,0.537 0.147,1.068 0.328,1.179c0.18,0.112 0.249,-0.328 0.154,-0.976c-0.21,-1.43 -0.482,-1.544 -0.482,-0.203m-94.354,0.124c-0.043,0.833 0.109,0.895 2.054,0.828l2.1,-0.072l-1.875,-0.149c-1.344,-0.107 -1.925,-0.341 -2.053,-0.828c-0.128,-0.486 -0.192,-0.423 -0.226,0.221m-167.733,2.395c1.163,0.081 2.963,0.081 4,-0.002c1.038,-0.082 0.087,-0.148 -2.113,-0.147c-2.2,0.001 -3.049,0.068 -1.887,0.149m4.787,4.387c0.495,0.096 1.305,0.096 1.8,0c0.495,-0.095 0.09,-0.173 -0.9,-0.173c-0.99,0 -1.395,0.078 -0.9,0.173m-7,0.394c0.385,0.1 1.015,0.1 1.4,0c0.385,-0.101 0.07,-0.183 -0.7,-0.183c-0.77,0 -1.085,0.082 -0.7,0.183m-10.395,0.411c0.609,0.092 1.509,0.09 2,-0.005c0.492,-0.095 -0.005,-0.171 -1.105,-0.168c-1.1,0.003 -1.503,0.081 -0.895,0.173" id="path0"/>
   <path fill-rule="evenodd" fill="#d5bf26" d="m173.876,2.928c-0.449,0.727 -1.346,90.464 -0.899,90c0.195,-0.203 0.655,-39.025 0.734,-62c0.024,-6.93 0.161,-16.02 0.304,-20.2l0.261,-7.6l2.093,-0.121l2.092,-0.12l0.115,9.52l0.115,9.521l0.093,-9.7l0.092,-9.7l-2.376,0c-1.307,0 -2.488,0.18 -2.624,0.4m4.377,44.6c0,6.38 0.055,8.934 0.122,5.676c0.068,-3.259 0.067,-8.479 0,-11.6c-0.068,-3.122 -0.123,-0.456 -0.122,5.924m-145.586,-6.651c-0.248,0.627 -0.35,4.213 -0.776,27.251c-0.153,8.277 -0.51,24.223 -0.703,31.4c-0.064,2.362 -0.461,2.23 6.345,2.11c5.075,-0.089 6.317,-0.223 6.574,-0.71c0.459,-0.87 1.004,-12.047 0.769,-15.8c-0.143,-2.285 -0.289,-0.525 -0.513,6.159c-0.172,5.148 -0.408,9.513 -0.524,9.7c-0.116,0.188 -2.914,0.341 -6.219,0.341l-6.008,0l0.227,-5.5c0.435,-10.514 0.624,-18.405 0.878,-36.5c0.14,-10.01 0.282,-18.234 0.316,-18.275c0.033,-0.042 2.704,-0.194 5.935,-0.338l5.874,-0.261l0.253,1.007c0.139,0.554 0.183,2.415 0.098,4.137c-0.084,1.721 -0.032,3.67 0.117,4.33c0.149,0.66 0.293,-1.166 0.319,-4.057c0.056,-6.298 0.677,-5.792 -6.998,-5.708c-4.861,0.054 -5.745,0.16 -5.964,0.714m175.714,3.134c0.497,0.096 1.217,0.092 1.6,-0.008c0.382,-0.1 -0.025,-0.179 -0.905,-0.174c-0.88,0.004 -1.193,0.086 -0.695,0.182m41.195,0.799c0.495,0.096 1.305,0.096 1.8,0c0.495,-0.095 0.09,-0.173 -0.9,-0.173c-0.99,0 -1.395,0.078 -0.9,0.173m91.191,0.007c0.71,0.088 1.97,0.09 2.8,0.003c0.83,-0.087 0.249,-0.159 -1.291,-0.161c-1.54,-0.002 -2.219,0.069 -1.509,0.158m5.163,0.017c0.249,0.162 0.543,0.654 0.653,1.094c0.154,0.613 0.211,0.543 0.247,-0.3c0.033,-0.801 -0.144,-1.098 -0.654,-1.094c-0.444,0.004 -0.534,0.114 -0.246,0.3m-197.563,5.183c0.71,0.088 1.97,0.09 2.8,0.003c0.83,-0.087 0.249,-0.159 -1.291,-0.161c-1.54,-0.002 -2.219,0.069 -1.509,0.158m-46.991,0.402c0.825,0.087 2.175,0.087 3,0c0.825,-0.086 0.15,-0.157 -1.5,-0.157c-1.65,0 -2.325,0.071 -1.5,0.157m-13.7,0.509l-2.6,0.262l2.7,0.069c1.579,0.04 2.7,-0.097 2.7,-0.331c0,-0.22 -0.045,-0.369 -0.1,-0.331c-0.055,0.038 -1.27,0.187 -2.7,0.331m10.708,-0.174c-0.124,0.124 -0.768,0.241 -1.431,0.259c-0.84,0.024 -1.143,0.199 -0.999,0.575c0.258,0.672 0.106,0.689 2.178,-0.251c0.959,-0.435 1.459,-0.795 1.111,-0.8c-0.349,-0.005 -0.735,0.093 -0.859,0.217m8.692,0.258c1.498,0.525 2.502,1.373 3.456,2.916c0.884,1.432 0.989,1.035 0.154,-0.581c-0.666,-1.287 -2.919,-2.835 -4.057,-2.787c-0.495,0.02 -0.341,0.176 0.447,0.452m15.915,-0.188c1.273,0.08 3.253,0.079 4.4,-0.002c1.147,-0.08 0.105,-0.145 -2.315,-0.144c-2.42,0.001 -3.358,0.066 -2.085,0.146m7.385,0.224c-0.605,0.239 -1.1,0.584 -1.1,0.767c0,0.276 2.198,-0.629 2.767,-1.138c0.292,-0.261 -0.531,-0.078 -1.667,0.371m-70.5,0.31c-5.039,1.079 -8.003,3.294 -8.983,6.712c-0.444,1.547 -0.702,12.084 -0.311,12.71c0.36,0.577 1.894,0.991 1.894,0.511c0,-0.2 -0.385,-0.363 -0.857,-0.363c-1.227,0 -0.918,-11.31 0.379,-13.84c1.894,-3.693 5.133,-5.236 12.078,-5.754l3.8,-0.283l-3.2,-0.018c-1.76,-0.009 -3.92,0.137 -4.8,0.325m23.389,-0.33c-0.006,0.055 -0.101,7.12 -0.21,15.7c-0.11,8.58 -0.266,16.95 -0.347,18.6c-0.081,1.65 -0.272,5.925 -0.425,9.5l-0.278,6.5l1.735,-0.067c1.661,-0.065 1.674,-0.074 0.293,-0.221l-1.443,-0.154l0.134,-2.879c0.498,-10.717 0.952,-28.158 0.952,-36.619c0,-7.62 0.119,-10.041 0.5,-10.195c0.299,-0.121 0.218,-0.215 -0.2,-0.233c-0.385,-0.018 -0.705,0.013 -0.711,0.068m57.211,0.082c0,1 2.045,1.441 3.042,0.656c0.586,-0.461 0.921,-0.838 0.743,-0.838c-0.177,0 -0.647,0.294 -1.043,0.653c-0.667,0.603 -0.797,0.603 -1.732,-0.01c-0.555,-0.364 -1.01,-0.571 -1.01,-0.461m16.445,0.799c0.355,0.45 0.845,1.179 1.088,1.619c0.244,0.44 0.448,0.578 0.455,0.306c0.007,-0.271 -0.483,-1 -1.088,-1.619c-0.605,-0.619 -0.81,-0.757 -0.455,-0.306m-111.978,13.919c0.037,7.975 0.126,13.87 0.197,13.1c0.284,-3.08 0.316,-27.601 0.036,-27.6c-0.165,0 -0.27,6.525 -0.233,14.5m-32.067,-13.993c-0.11,0.109 -1.01,0.296 -2,0.415c-0.99,0.119 -2.34,0.423 -3,0.675c-0.66,0.253 -1.214,0.402 -1.231,0.331c-0.016,-0.07 -0.846,0.499 -1.844,1.264c-2.849,2.188 -3.569,3.8 -3.819,8.558c-0.116,2.227 -0.386,4.387 -0.599,4.798c-0.236,0.456 -0.239,0.657 -0.008,0.515c0.213,-0.132 0.378,0.464 0.378,1.37c0,2.056 0.522,2.542 2.621,2.443l1.702,-0.081l-1.2,1.131c-3.245,3.06 -3.381,3.628 -3.639,15.228c-0.237,10.613 0.178,11.989 3.992,13.235c1.954,0.639 7.24,0.373 8.884,-0.448c0.998,-0.498 1.289,-0.51 1.7,-0.071c0.644,0.69 10.668,0.867 11.332,0.2c0.148,-0.148 0.339,-2.206 0.423,-4.573c0.085,-2.366 0.015,-4.164 -0.154,-3.995c-0.168,0.168 -0.359,2.105 -0.422,4.302l-0.116,3.996l-4.8,0.041c-3.588,0.03 -5.043,-0.109 -5.762,-0.55c-0.851,-0.522 -1.081,-0.52 -2,0.021c-3.142,1.851 -8.756,1.323 -10.999,-1.034l-1.561,-1.64l0.271,-9.694c0.326,-11.674 1.11,-14.03 5.13,-15.432c1.882,-0.656 1.264,-1.071 -1.779,-1.194l-2.9,-0.118l0,-2.086c0,-12.293 2.144,-15.697 10.616,-16.856c5.83,-0.797 13.584,1.586 13.584,4.176c0,0.274 0.225,0.575 0.5,0.667c0.392,0.132 0.472,3.823 0.368,17.132c-0.073,9.331 -0.023,16.855 0.111,16.722c0.369,-0.369 0.784,-30.277 0.451,-32.496c-0.372,-2.481 -2.754,-5.013 -5.657,-6.015c-1.907,-0.658 -8.166,-1.342 -8.573,-0.937m59.119,0.749c1.226,0.471 2.804,1.515 3.748,2.479c0.896,0.916 1.444,1.305 1.218,0.865c-0.887,-1.725 -4.744,-4.205 -6.485,-4.17c-0.33,0.006 0.353,0.378 1.519,0.826m44.574,1.544c0,0.77 0.082,1.085 0.183,0.7c0.1,-0.385 0.1,-1.015 0,-1.4c-0.101,-0.385 -0.183,-0.07 -0.183,0.7m-31.992,1.8c0.004,0.88 0.086,1.193 0.182,0.695c0.096,-0.497 0.092,-1.217 -0.008,-1.6c-0.1,-0.382 -0.179,0.025 -0.174,0.905m190.399,-1.124c0.385,0.1 1.015,0.1 1.4,0c0.385,-0.101 0.07,-0.183 -0.7,-0.183c-0.77,0 -1.085,0.082 -0.7,0.183m-241.207,1.324c0,0.77 0.082,1.085 0.183,0.7c0.1,-0.385 0.1,-1.015 0,-1.4c-0.101,-0.385 -0.183,-0.07 -0.183,0.7m278.107,-0.8c-0.504,0.217 -0.578,0.344 -0.2,0.344c0.33,0 0.96,-0.155 1.4,-0.344c0.504,-0.217 0.578,-0.344 0.2,-0.344c-0.33,0 -0.96,0.155 -1.4,0.344m7.1,-0.124c0.385,0.1 1.015,0.1 1.4,0c0.385,-0.101 0.07,-0.183 -0.7,-0.183c-0.77,0 -1.085,0.082 -0.7,0.183m-207.7,11.804c-0.11,6.315 -0.062,11.343 0.106,11.174c0.169,-0.169 0.259,-5.335 0.2,-11.48l-0.107,-11.174l-0.199,11.48m280.224,-10.293c0.427,0.323 1.046,0.587 1.376,0.586c0.348,-0.001 0.18,-0.241 -0.4,-0.573c-1.315,-0.752 -1.964,-0.76 -0.976,-0.013m-347.678,4.413c0.001,2.2 0.068,3.049 0.149,1.887c0.081,-1.163 0.081,-2.963 -0.002,-4c-0.082,-1.038 -0.148,-0.087 -0.147,2.113m134.355,-0.4c0.004,0.88 0.086,1.193 0.182,0.695c0.096,-0.497 0.092,-1.217 -0.008,-1.6c-0.1,-0.382 -0.179,0.025 -0.174,0.905m-114.421,-0.52c-0.291,0.291 -0.48,1.701 -0.48,3.576c0,2.953 0.396,4.121 1.043,3.074c0.164,-0.265 0.087,-0.553 -0.172,-0.64c-0.817,-0.272 -0.617,-5.565 0.229,-6.058c0.385,-0.224 0.511,-0.413 0.28,-0.42c-0.231,-0.007 -0.636,0.204 -0.9,0.468m32.814,0.02c-0.246,0.304 -0.503,6.452 -0.656,15.7c-0.138,8.36 -0.337,17 -0.443,19.2c-0.112,2.339 -0.052,3.67 0.145,3.206c0.185,-0.436 0.376,-5.018 0.425,-10.181c0.048,-5.163 0.162,-9.507 0.252,-9.653c0.09,-0.146 0.18,-4.147 0.199,-8.891c0.028,-7.045 0.142,-8.714 0.619,-9.11c1.03,-0.855 1.117,-0.112 1.026,8.776c-0.082,7.976 -0.028,8.778 0.624,9.273c0.514,0.389 0.586,0.396 0.258,0.024c-0.326,-0.37 -0.398,-3.028 -0.25,-9.326c0.169,-7.206 0.107,-8.873 -0.343,-9.157c-0.772,-0.49 -1.385,-0.444 -1.856,0.139m34.258,0.787c0.185,1.111 0.241,1.168 0.367,0.367c0.082,-0.521 -0.016,-1.111 -0.218,-1.313c-0.222,-0.222 -0.28,0.152 -0.149,0.946m-117.548,0.108c-0.279,0.336 -0.367,0.902 -0.202,1.3c0.24,0.582 0.323,0.6 0.476,0.105c0.545,-1.764 0.599,-1.822 0.937,-1c0.313,0.761 0.33,0.756 0.357,-0.1c0.032,-1.029 -0.828,-1.197 -1.568,-0.305m51.71,1.205c0.003,1.1 0.081,1.503 0.173,0.895c0.092,-0.609 0.09,-1.509 -0.005,-2c-0.095,-0.492 -0.171,0.005 -0.168,1.105m78.864,10.4c0,6.82 0.054,9.666 0.121,6.325c0.067,-3.341 0.067,-8.921 0,-12.4c-0.066,-3.479 -0.121,-0.745 -0.121,6.075m-66.01,-3.2c0,4.4 0.058,6.255 0.13,4.121c0.072,-2.133 0.072,-5.733 0.001,-8c-0.072,-2.266 -0.131,-0.521 -0.131,3.879m-75.259,-5.8c0,0.99 0.078,1.395 0.173,0.9c0.096,-0.495 0.096,-1.305 0,-1.8c-0.095,-0.495 -0.173,-0.09 -0.173,0.9m126.405,0.2c0.003,1.1 0.081,1.503 0.173,0.895c0.092,-0.609 0.09,-1.509 -0.005,-2c-0.095,-0.492 -0.171,0.005 -0.168,1.105m-114.405,0.6c0,0.99 0.078,1.395 0.173,0.9c0.096,-0.495 0.096,-1.305 0,-1.8c-0.095,-0.495 -0.173,-0.09 -0.173,0.9m128.044,3c0,2.64 0.065,3.668 0.144,2.284c0.078,-1.383 0.077,-3.543 -0.002,-4.8c-0.079,-1.256 -0.143,-0.124 -0.142,2.516m80.847,-2.6c-0.341,0.66 -0.531,1.2 -0.421,1.2c0.11,0 0.48,-0.54 0.821,-1.2c0.341,-0.66 0.531,-1.2 0.421,-1.2c-0.11,0 -0.48,0.54 -0.821,1.2m-210.549,1.22c-0.091,1.995 0.186,2.383 1.069,1.5c0.686,-0.686 0.592,-1.138 -0.175,-0.844c-0.543,0.209 -0.622,0.033 -0.466,-1.03c0.103,-0.705 0.069,-1.354 -0.075,-1.444c-0.145,-0.089 -0.304,0.729 -0.353,1.818m82.083,1.58c0,1.65 0.071,2.325 0.157,1.5c0.087,-0.825 0.087,-2.175 0,-3c-0.086,-0.825 -0.157,-0.15 -0.157,1.5m36.044,10c0,6.93 0.055,9.765 0.121,6.3c0.067,-3.465 0.067,-9.135 0,-12.6c-0.066,-3.465 -0.121,-0.63 -0.121,6.3m-2.014,-5c-0.001,3.74 0.059,5.324 0.133,3.52c0.074,-1.805 0.075,-4.865 0.001,-6.8c-0.073,-1.936 -0.134,-0.46 -0.134,3.28m-118.259,-2.317c0.497,0.096 1.217,0.092 1.6,-0.008c0.382,-0.1 -0.025,-0.179 -0.905,-0.174c-0.88,0.004 -1.193,0.086 -0.695,0.182m43.832,1.217c0.102,0.165 -0.383,0.73 -1.077,1.256c-2.783,2.109 -3.163,3.837 -3.348,15.244l-0.165,10.2l1.21,1.2c2.046,2.03 2.36,2.202 3.926,2.147c1.453,-0.05 1.467,-0.063 0.317,-0.3c-4.76,-0.981 -5.148,-2.151 -4.716,-14.247c0.378,-10.58 0.702,-12.376 2.044,-11.326c0.613,0.48 0.62,0.46 0.08,-0.226c-0.618,-0.785 1.726,-3.448 3.035,-3.448c0.28,0 0.621,-0.18 0.757,-0.4c0.145,-0.234 -0.27,-0.4 -1,-0.4c-0.686,0 -1.164,0.135 -1.063,0.3m327.08,1.163c0.018,0.351 3.983,3.541 3.983,3.203c0,-0.105 -0.9,-0.945 -2,-1.866c-1.1,-0.921 -1.992,-1.523 -1.983,-1.337m-224.297,3.337c0,1.21 0.075,1.705 0.167,1.1c0.091,-0.605 0.091,-1.595 0,-2.2c-0.092,-0.605 -0.167,-0.11 -0.167,1.1m-25.161,4.4c0,3.19 0.062,4.495 0.138,2.9c0.076,-1.595 0.076,-4.205 0,-5.8c-0.076,-1.595 -0.138,-0.29 -0.138,2.9m45.62,8c0,7.15 0.054,10.075 0.12,6.5c0.067,-3.575 0.067,-9.425 0,-13c-0.066,-3.575 -0.12,-0.65 -0.12,6.5m-161.678,-11c0.004,0.88 0.086,1.193 0.182,0.695c0.096,-0.497 0.092,-1.217 -0.008,-1.6c-0.1,-0.382 -0.179,0.025 -0.174,0.905m129.657,4.4c0,3.08 0.063,4.287 0.139,2.682c0.076,-1.604 0.076,-4.124 -0.001,-5.6c-0.077,-1.475 -0.139,-0.162 -0.138,2.918m-45.051,-4.71c0.719,0.089 1.799,0.087 2.4,-0.004c0.601,-0.091 0.013,-0.164 -1.307,-0.162c-1.32,0.002 -1.812,0.077 -1.093,0.166m15.457,6.31c-0.001,3.74 0.059,5.324 0.133,3.52c0.074,-1.805 0.075,-4.865 0.001,-6.8c-0.073,-1.936 -0.134,-0.46 -0.134,3.28m42.4,0.4c-0.001,3.74 0.059,5.324 0.133,3.52c0.074,-1.805 0.075,-4.865 0.001,-6.8c-0.073,-1.936 -0.134,-0.46 -0.134,3.28m-94.894,-4.874c-0.765,0.814 -0.862,1.331 -0.801,4.3l0.069,3.374l0.231,-3.4c0.425,-6.262 1.561,-6.065 1.732,0.3l0.127,4.7l0.086,-5.1c0.09,-5.341 -0.028,-5.682 -1.444,-4.174m41.53,-0.606c0,0.176 0.675,0.252 1.5,0.171c2.322,-0.23 2.491,-0.425 0.4,-0.459c-1.045,-0.018 -1.9,0.112 -1.9,0.288m203.507,-0.03c0.719,0.089 1.799,0.087 2.4,-0.004c0.601,-0.091 0.013,-0.164 -1.307,-0.162c-1.32,0.002 -1.812,0.077 -1.093,0.166m5.793,-0.003c0.605,0.091 1.595,0.091 2.2,0c0.605,-0.092 0.11,-0.167 -1.1,-0.167c-1.21,0 -1.705,0.075 -1.1,0.167m74.106,0.625c0.386,0.612 0.803,1.012 0.926,0.889c0.123,-0.123 -0.193,-0.623 -0.702,-1.112l-0.926,-0.889l0.702,1.112m-373.713,1.888c0,0.77 0.082,1.085 0.183,0.7c0.1,-0.385 0.1,-1.015 0,-1.4c-0.101,-0.385 -0.183,-0.07 -0.183,0.7m142.438,1.8c0.002,1.54 0.074,2.121 0.161,1.291c0.087,-0.83 0.085,-2.09 -0.003,-2.8c-0.089,-0.71 -0.16,-0.031 -0.158,1.509m-144.453,1.4c-0.049,2.09 -0.182,4.25 -0.295,4.8l-0.206,1l0.425,-0.972c0.238,-0.542 0.368,-2.663 0.295,-4.8l-0.13,-3.828l-0.089,3.8m353.422,-1.707c0.935,0.084 2.465,0.084 3.4,0c0.935,-0.084 0.17,-0.153 -1.7,-0.153c-1.87,0 -2.635,0.069 -1.7,0.153m-288.963,3.907c0.002,1.76 0.072,2.43 0.156,1.489c0.085,-0.94 0.084,-2.38 -0.002,-3.2c-0.086,-0.819 -0.155,-0.049 -0.154,1.711m-34.036,-0.8c0.004,0.88 0.086,1.193 0.182,0.695c0.096,-0.497 0.092,-1.217 -0.008,-1.6c-0.1,-0.382 -0.179,0.025 -0.174,0.905m51.192,1c0,0.77 0.082,1.085 0.183,0.7c0.1,-0.385 0.1,-1.015 0,-1.4c-0.101,-0.385 -0.183,-0.07 -0.183,0.7m-42.8,1.2c0,0.77 0.082,1.085 0.183,0.7c0.1,-0.385 0.1,-1.015 0,-1.4c-0.101,-0.385 -0.183,-0.07 -0.183,0.7m10.774,1.62c-0.072,2.399 0.363,3.202 1.567,2.887c0.53,-0.139 0.749,-0.524 0.712,-1.254c-0.049,-0.942 -0.073,-0.958 -0.228,-0.153c-0.096,0.495 -0.341,0.9 -0.546,0.9c-0.205,0 -0.507,0.003 -0.672,0.008c-0.165,0.004 -0.405,-1.031 -0.533,-2.3l-0.233,-2.308l-0.067,2.22m276.826,-0.42c0,0.77 0.082,1.085 0.183,0.7c0.1,-0.385 0.1,-1.015 0,-1.4c-0.101,-0.385 -0.183,-0.07 -0.183,0.7m-195.951,3c-0.001,1.98 0.066,2.84 0.15,1.912c0.084,-0.928 0.085,-2.548 0.003,-3.6c-0.083,-1.052 -0.152,-0.292 -0.153,1.688m2.351,-1.4c0,0.77 0.082,1.085 0.183,0.7c0.1,-0.385 0.1,-1.015 0,-1.4c-0.101,-0.385 -0.183,-0.07 -0.183,0.7m-133.293,0.576c0,0.537 0.147,1.068 0.328,1.179c0.18,0.112 0.249,-0.328 0.154,-0.976c-0.21,-1.43 -0.482,-1.544 -0.482,-0.203m118.509,1.024c0,0.99 0.078,1.395 0.173,0.9c0.096,-0.495 0.096,-1.305 0,-1.8c-0.095,-0.495 -0.173,-0.09 -0.173,0.9m-54.033,6.1l-0.076,2.7l-5.456,0c-4.733,0 -5.524,-0.093 -5.97,-0.7c-0.49,-0.666 -0.574,-0.665 -1.74,0.02c-0.674,0.396 -1.993,0.872 -2.93,1.056c-1.597,0.315 -1.621,0.339 -0.388,0.38c0.724,0.024 2.011,-0.311 2.861,-0.744c1.348,-0.688 1.607,-0.714 2.033,-0.2c0.687,0.828 11.508,0.868 11.824,0.043c0.115,-0.299 0.144,-1.604 0.063,-2.9l-0.146,-2.355l-0.075,2.7m274.817,-0.9c0,0.77 0.082,1.085 0.183,0.7c0.1,-0.385 0.1,-1.015 0,-1.4c-0.101,-0.385 -0.183,-0.07 -0.183,0.7m-209.6,1.2c0,0.77 0.082,1.085 0.183,0.7c0.1,-0.385 0.1,-1.015 0,-1.4c-0.101,-0.385 -0.183,-0.07 -0.183,0.7m1.171,0.689l-0.064,1.689l-5.7,0.123l-5.7,0.123l5.713,0.088c6.284,0.097 6.282,0.097 5.979,-2.374c-0.149,-1.215 -0.17,-1.182 -0.228,0.351m75.942,-0.589c-0.004,0.47 0.289,0.69 0.894,0.668c0.601,-0.021 0.701,-0.107 0.3,-0.26c-0.33,-0.125 -0.732,-0.426 -0.894,-0.668c-0.181,-0.271 -0.296,-0.172 -0.3,0.26m-88.662,1.069c0.034,0.843 0.287,1.431 0.656,1.531c0.405,0.109 0.449,0.053 0.136,-0.171c-0.255,-0.182 -0.55,-0.871 -0.656,-1.53c-0.177,-1.098 -0.188,-1.084 -0.136,0.17m209.157,-0.369c0.124,0.456 0.829,0.608 2.931,0.633l2.768,0.033l-2.59,-0.154c-1.424,-0.085 -2.743,-0.37 -2.93,-0.633c-0.24,-0.337 -0.293,-0.301 -0.179,0.121m11.322,0.233c-0.649,0.474 -0.669,0.567 -0.123,0.567c0.359,0 0.771,-0.192 0.916,-0.427c0.424,-0.686 0.045,-0.753 -0.793,-0.14m-329.423,0.167l-3.4,0.251l3.276,0.074c1.838,0.042 3.385,-0.101 3.524,-0.325c0.136,-0.22 0.192,-0.366 0.124,-0.325c-0.068,0.041 -1.654,0.187 -3.524,0.325m63.9,0.293c0.935,0.084 2.465,0.084 3.4,0c0.935,-0.084 0.17,-0.153 -1.7,-0.153c-1.87,0 -2.635,0.069 -1.7,0.153m6,-0.011c0.495,0.096 1.305,0.096 1.8,0c0.495,-0.095 0.09,-0.173 -0.9,-0.173c-0.99,0 -1.395,0.078 -0.9,0.173m3.746,0.218c-0.041,0.624 -0.553,0.7 -4.713,0.7c-2.566,0 -4.575,0.091 -4.464,0.202c0.28,0.28 9.104,0.358 9.379,0.083c0.123,-0.122 0.138,-0.551 0.034,-0.954c-0.171,-0.662 -0.194,-0.665 -0.236,-0.031m27.254,-0.224c0.385,0.1 1.015,0.1 1.4,0c0.385,-0.101 0.07,-0.183 -0.7,-0.183c-0.77,0 -1.085,0.082 -0.7,0.183m4.7,0.924l-1.4,0.295l1.276,0.052c0.702,0.029 1.388,-0.127 1.524,-0.347c0.136,-0.22 0.192,-0.376 0.124,-0.347c-0.068,0.029 -0.754,0.185 -1.524,0.347m-11.06,0.273c0.114,0.114 0.861,0.207 1.66,0.207c0.799,0 1.546,-0.093 1.66,-0.207c0.114,-0.113 -0.633,-0.206 -1.66,-0.206c-1.027,0 -1.774,0.093 -1.66,0.206m5.767,0.017c0.719,0.089 1.799,0.087 2.4,-0.004c0.601,-0.091 0.013,-0.164 -1.307,-0.162c-1.32,0.002 -1.812,0.077 -1.093,0.166m26.793,0.008c1.815,0.074 4.785,0.074 6.6,0c1.815,-0.075 0.33,-0.135 -3.3,-0.135c-3.63,0 -5.115,0.06 -3.3,0.135m201.005,0.389c0.609,0.092 1.509,0.09 2,-0.005c0.492,-0.095 -0.005,-0.171 -1.105,-0.168c-1.1,0.003 -1.503,0.081 -0.895,0.173m-292.759,0.6c-0.106,0.172 0.368,0.313 1.054,0.313c0.686,0 1.143,-0.169 1.016,-0.375c-0.271,-0.438 -1.789,-0.393 -2.07,0.062m115.63,15.713c0,6.16 0.056,8.624 0.123,5.476c0.068,-3.149 0.068,-8.189 0,-11.2c-0.068,-3.012 -0.123,-0.436 -0.123,5.724m4.797,8c0,5.5 0.057,7.805 0.126,5.123c0.069,-2.682 0.069,-7.182 0,-10c-0.069,-2.818 -0.125,-0.623 -0.126,4.877m35.936,-7.8c0,0.99 0.078,1.395 0.173,0.9c0.096,-0.495 0.096,-1.305 0,-1.8c-0.095,-0.495 -0.173,-0.09 -0.173,0.9m-3.208,2.6c0.004,0.88 0.086,1.193 0.182,0.695c0.096,-0.497 0.092,-1.217 -0.008,-1.6c-0.1,-0.382 -0.179,0.025 -0.174,0.905m-7.992,1.4c0,0.99 0.078,1.395 0.173,0.9c0.096,-0.495 0.096,-1.305 0,-1.8c-0.095,-0.495 -0.173,-0.09 -0.173,0.9m-28.609,14.289c0.715,0.089 1.885,0.089 2.6,0c0.715,-0.088 0.13,-0.161 -1.3,-0.161c-1.43,0 -2.015,0.073 -1.3,0.161" id="path1"/>
   <path fill-rule="evenodd" fill="#ffff00" d="m174.28,3.321c-0.133,0.216 -0.324,9.441 -0.423,20.5c-0.099,11.059 -0.268,25.507 -0.376,32.107c-0.107,6.6 -0.29,24.06 -0.406,38.8c-0.116,14.74 -0.311,30.085 -0.433,34.1l-0.222,7.3l2.428,0l2.428,0l0.025,-9.1c0.014,-5.005 0.096,-12.61 0.181,-16.9c0.086,-4.29 0.253,-18.42 0.371,-31.4c0.118,-12.98 0.336,-35.345 0.483,-49.7l0.269,-26.1l-2.041,0c-1.122,0 -2.15,0.177 -2.284,0.393m-138.904,37.526l-2.5,0.119l-0.051,9.281c-0.028,5.105 -0.099,10.271 -0.158,11.481c-0.059,1.21 -0.22,8.86 -0.359,17c-0.138,8.14 -0.36,16.56 -0.493,18.711l-0.241,3.91l6.151,-0.11l6.151,-0.111l0.256,-4.4c0.234,-4.036 0.445,-13.833 0.943,-43.89c0.101,-6.1 0.079,-11.364 -0.049,-11.697c-0.236,-0.613 -1.887,-0.664 -9.65,-0.294m8.691,9.181c-0.011,11.607 -0.72,44.151 -1.03,47.368l-0.258,2.669l-5.005,0.036l-5.005,0.037l0.27,-6.505c0.25,-6.026 1.015,-42.419 1.03,-49.005l0.007,-2.9l5,0l5,0l-0.009,8.3m206.009,-5.1c-1.904,0.173 -2.217,0.321 -2.328,1.1c-0.07,0.495 -0.278,0.9 -0.463,0.9c-0.184,0 -0.648,1.035 -1.032,2.3c-0.384,1.265 -0.94,2.5 -1.237,2.744c-0.297,0.244 -0.54,0.593 -0.54,0.774c0,0.34 -0.455,1.376 -2.942,6.703c-0.802,1.717 -1.458,3.21 -1.458,3.319c0,0.108 -0.65,1.584 -1.444,3.278c-0.794,1.695 -1.789,3.982 -2.211,5.082c-0.422,1.1 -0.937,2.36 -1.145,2.8c-0.208,0.44 -0.631,1.52 -0.939,2.4c-1.949,5.562 -2.848,7.8 -3.135,7.8c-0.47,0 -0.46,-0.06 1.053,-6.654c0.759,-3.305 1.498,-6.895 1.643,-7.977c0.145,-1.083 0.324,-2.069 0.397,-2.192c0.103,-0.172 2.107,-11.761 3.608,-20.858c0.231,-1.401 -0.523,-1.53 -8.213,-1.41l-5.787,0.091l-1.364,2.8c-4.342,8.913 -10.193,22.762 -11.746,27.8c-0.44,1.43 -0.938,2.78 -1.106,3c-0.168,0.22 -0.621,1.39 -1.007,2.6c-1.568,4.913 -1.827,3.399 -0.416,-2.429c1.355,-5.595 5.812,-31.171 5.812,-33.35c0,-0.674 -12.431,-0.203 -12.649,0.479c-0.123,0.385 -0.387,1.06 -0.587,1.5c-0.2,0.44 -0.429,1.79 -0.508,3c-0.079,1.21 -0.258,2.47 -0.397,2.8c-0.139,0.33 -0.342,1.59 -0.451,2.8c-0.109,1.21 -0.556,4.45 -0.994,7.2c-0.437,2.75 -0.718,5.219 -0.622,5.487c0.095,0.268 0.022,0.581 -0.162,0.695c-0.288,0.178 -0.713,2.875 -1.05,6.671c-0.052,0.579 -0.219,1.795 -0.372,2.701c-0.153,0.907 -0.326,2.053 -0.383,2.547c-0.058,0.494 -0.215,1.439 -0.35,2.099c-0.134,0.66 -0.354,2.19 -0.487,3.4c-0.134,1.21 -0.428,3.46 -0.653,5c-0.225,1.54 -0.48,3.505 -0.567,4.367c-0.086,0.863 -0.262,1.898 -0.389,2.3c-0.22,0.691 0.158,0.733 6.568,0.733c7.826,0 8.51,-0.166 9.359,-2.269c0.34,-0.842 1.282,-2.971 2.093,-4.731c0.811,-1.76 1.757,-3.83 2.102,-4.6c0.345,-0.77 1.694,-3.65 2.999,-6.4c3.078,-6.491 5.9,-13.087 5.9,-13.794c0,-0.307 0.183,-0.672 0.407,-0.81c0.223,-0.138 0.322,-0.387 0.22,-0.552c-0.102,-0.165 0.165,-0.877 0.594,-1.582c0.428,-0.705 0.779,-1.547 0.779,-1.872c0,-0.324 0.135,-0.591 0.3,-0.591c0.165,-0.001 0.633,-0.811 1.04,-1.8c1.48,-3.6 1.876,-2.039 0.66,2.601c-0.432,1.65 -0.789,3.484 -0.793,4.076c-0.004,0.592 -0.19,1.19 -0.414,1.328c-0.223,0.138 -0.298,0.427 -0.165,0.641c0.132,0.215 0.05,0.62 -0.183,0.901c-0.233,0.281 -0.526,1.558 -0.65,2.838c-0.125,1.28 -0.378,2.617 -0.564,2.972c-0.186,0.354 -0.465,1.409 -0.62,2.345c-0.155,0.936 -0.358,2.106 -0.451,2.6c-0.093,0.494 -0.483,2.879 -0.865,5.299c-0.382,2.42 -0.811,4.58 -0.952,4.8c-0.385,0.6 -1.256,7.821 -0.977,8.1c0.133,0.133 3.281,0.275 6.996,0.316l6.753,0.075l4.503,-9.845c2.476,-5.415 5.015,-10.899 5.642,-12.187c0.627,-1.288 1.14,-2.593 1.14,-2.9c0,-0.307 0.18,-0.559 0.4,-0.559c0.22,0 0.4,-0.225 0.399,-0.5c-0.001,-0.497 0.848,-2.403 2.656,-5.959c0.52,-1.022 0.945,-2.147 0.945,-2.5c0,-0.353 0.18,-0.641 0.4,-0.641c0.22,0 0.4,-0.203 0.4,-0.451c0,-0.247 0.528,-1.489 1.174,-2.759c0.645,-1.27 1.065,-2.418 0.933,-2.55c-0.132,-0.132 -0.03,-0.24 0.226,-0.24c0.257,0 0.467,-0.186 0.467,-0.413c0,-0.227 0.299,-1.082 0.664,-1.9c0.365,-0.818 0.69,-1.577 0.722,-1.687c0.086,-0.295 2.964,-6.415 3.636,-7.732c0.318,-0.623 0.578,-1.303 0.578,-1.511c0,-0.374 -4.042,-0.353 -8.4,0.043m85.013,-0.08c-0.117,0.118 -0.213,0.687 -0.213,1.267c0,0.579 -0.161,1.224 -0.358,1.433c-0.197,0.209 -0.545,1.19 -0.775,2.18c-0.229,0.99 -0.624,2.52 -0.878,3.4c-0.254,0.88 -0.685,2.5 -0.957,3.6c-0.271,1.1 -0.608,2.27 -0.747,2.6c-0.267,0.634 -2.314,7.778 -2.449,8.548c-0.044,0.249 -0.305,1.114 -0.58,1.924c-0.275,0.81 -0.548,1.89 -0.608,2.4c-0.059,0.51 -0.304,1.393 -0.543,1.961c-0.239,0.569 -0.533,1.649 -0.654,2.4c-0.121,0.752 -0.593,2.447 -1.048,3.767c-0.456,1.32 -0.823,2.445 -0.816,2.5c0.007,0.055 -0.002,0.145 -0.02,0.2c-0.019,0.055 -0.096,0.46 -0.172,0.9c-0.076,0.44 -0.43,1.7 -0.788,2.8c-0.357,1.1 -1.002,3.08 -1.432,4.4c-0.431,1.32 -0.781,2.859 -0.779,3.42c0.002,0.561 -0.167,1.191 -0.376,1.4c-0.208,0.209 -0.498,1.125 -0.644,2.036l-0.264,1.655l6.034,0.041l6.034,0.04l0.61,-2.196c0.335,-1.208 0.899,-3.231 1.251,-4.496c0.353,-1.265 0.703,-2.57 0.779,-2.9c0.732,-3.2 3.972,-13.6 4.237,-13.6c0.189,0 0.381,2.565 0.427,5.7c0.046,3.135 0.114,6.33 0.151,7.1c0.037,0.77 0.092,3.2 0.122,5.4c0.072,5.191 -0.236,4.909 5.623,5.148c7.255,0.295 6.586,1.651 6.313,-12.798c-0.17,-9.022 -0.109,-12.284 0.239,-12.653c1.018,-1.078 2.686,-3.944 2.485,-4.269c-0.117,-0.189 0.065,-0.451 0.403,-0.58c0.339,-0.13 0.883,-0.824 1.21,-1.542c0.715,-1.573 2.157,-4.029 2.528,-4.306c0.417,-0.311 2.635,-4.013 3.519,-5.873l0.796,-1.672l-0.837,-0.185c-0.46,-0.102 -2.927,-0.192 -5.482,-0.199c-4.977,-0.014 -5.275,0.111 -6.485,2.729c-0.153,0.33 -0.634,1.14 -1.069,1.8c-0.435,0.66 -0.915,1.47 -1.066,1.8c-0.152,0.33 -0.4,0.69 -0.551,0.8c-0.152,0.11 -0.684,1.004 -1.182,1.988c-0.499,0.983 -1.219,2.243 -1.6,2.8c-1.703,2.486 -3.602,5.576 -3.614,5.88c-0.017,0.418 -1.431,2.132 -1.759,2.132c-0.134,0 -0.137,-0.495 -0.007,-1.1c0.131,-0.605 0.297,-1.495 0.37,-1.977c0.074,-0.483 0.257,-1.078 0.409,-1.322c0.436,-0.707 2.6,-9.212 2.6,-10.221c0,-0.503 0.147,-0.973 0.327,-1.047c0.387,-0.157 2.473,-7.544 2.473,-8.754c0,-0.457 0.186,-1.18 0.414,-1.605c0.539,-1.006 0.944,-4.77 0.516,-4.787c-4.967,-0.192 -10.955,-0.228 -11.117,-0.067m-203.713,6.266c-1.656,0.77 -2.1,0.854 -2.1,0.396c0,-0.794 -12.216,-0.874 -12.483,-0.082c-0.093,0.275 -0.205,7.7 -0.249,16.5c-0.044,8.8 -0.186,19.825 -0.316,24.5l-0.236,8.5l0.942,0.04c2.945,0.126 11.194,-0.025 11.494,-0.21c0.195,-0.121 0.384,-7.917 0.419,-17.325c0.092,-24.031 0.107,-24.221 1.855,-23.551c0.63,0.242 0.666,1.737 0.497,20.654c-0.127,14.356 -0.054,20.398 0.248,20.412c2.021,0.094 11.641,-0.098 11.777,-0.235c0.097,-0.097 0.151,-2.809 0.12,-6.028c-0.031,-3.219 0.04,-6.009 0.158,-6.199c0.118,-0.19 0.201,-6.519 0.185,-14.063c-0.032,-14.55 0.094,-15.601 1.791,-14.95c0.681,0.262 0.706,1.316 0.492,20.865l-0.225,20.59l6.365,0l6.366,0l0.085,-11.9c0.266,-37.251 0.379,-35.627 -2.614,-37.858c-1.954,-1.457 -9.996,-1.252 -12.039,0.306l-1.505,1.148l-1.064,-0.779c-2.701,-1.979 -6.659,-2.27 -9.963,-0.731m-33.276,0.237c-1.463,0.664 -1.83,0.709 -2.084,0.256c-0.26,-0.465 -7.041,-0.633 -12.04,-0.299c-0.165,0.011 -0.3,4.532 -0.3,10.046c0,8.483 -0.452,25.905 -0.951,36.637l-0.134,2.864l1.443,0.136c0.793,0.076 3.611,0.082 6.263,0.015l4.82,-0.123l0.446,-1.18c0.29,-0.768 0.301,-1.091 0.032,-0.925c-0.279,0.173 -0.335,-1.022 -0.172,-3.697c0.133,-2.174 0.357,-10.835 0.498,-19.246c0.272,-16.25 0.305,-16.494 2.179,-15.899c0.855,0.271 0.861,0.347 0.719,9.333l-0.143,9.059l6.2,-0.026l6.2,-0.026l0.107,-11.374c0.113,-12.117 0.034,-12.739 -1.836,-14.473c-2.235,-2.071 -7.868,-2.611 -11.247,-1.078m57.135,0.672c2.565,1.878 2.507,1.242 2.311,25.426c-0.098,12.056 -0.244,21.983 -0.324,22.06c-0.202,0.193 -3.968,0.328 -7.471,0.269l-2.924,-0.05l0.279,-20.1c0.318,-22.859 0.408,-22.169 -2.741,-21.129l-1.361,0.449l-0.263,9.89c-0.145,5.439 -0.264,14.615 -0.264,20.39c-0.001,8.116 -0.115,10.507 -0.501,10.532c-3.8,0.245 -5.687,0.262 -7.663,0.07l-2.363,-0.229l0.28,-19.975c0.299,-21.394 0.322,-21.11 -1.703,-21.085c-2.551,0.031 -2.428,-0.931 -2.718,21.132c-0.262,19.959 -0.268,20.055 -1.098,20.108c-2.743,0.173 -7.766,0.203 -8.515,0.05l-0.88,-0.18l0.235,-23.661c0.129,-13.014 0.255,-23.691 0.28,-23.727c0.025,-0.035 2.34,-0.195 5.145,-0.354l5.1,-0.289l0,1.453l0,1.454l2.057,-1.478c3.287,-2.362 8.069,-2.405 10.97,-0.099l1.512,1.201l1.294,-1.255c2.176,-2.109 8.928,-2.63 11.326,-0.873m-95.759,-0.156c-3.922,1.02 -6.184,2.634 -7.592,5.416c-0.942,1.863 -1.429,13.633 -0.565,13.666c1.433,0.055 5.371,0.475 5.489,0.586c0.073,0.069 -0.49,0.42 -1.251,0.781c-1.708,0.811 -3.256,2.405 -2.898,2.984c0.168,0.272 0.811,-0.023 1.742,-0.799c0.811,-0.677 2.91,-1.852 4.664,-2.611c5.012,-2.171 6.884,-4.405 7.266,-8.673c0.294,-3.279 -0.246,-4.689 -1.796,-4.689c-1.998,0 -2.382,1.271 -2.435,8.073l-0.024,3.072l-3.9,0.128c-2.145,0.07 -4.411,0.059 -5.036,-0.024l-1.137,-0.15l0.137,-5.682c0.133,-5.549 0.163,-5.716 1.288,-7.191c4.9,-6.419 19.766,-5.834 22.743,0.895c0.857,1.939 0.855,3.264 -0.045,33.479l-0.25,8.4l-4.8,0l-4.8,0l-0.125,-1.3c-0.151,-1.562 -0.215,-1.574 -1.588,-0.3c-3.456,3.204 -10.258,3.154 -12.383,-0.091c-0.575,-0.877 -0.681,-1.777 -0.579,-4.892c0.162,-4.943 0.772,-15.621 0.943,-16.494c0.254,-1.3 -0.672,-0.9 -1.114,0.482c-0.827,2.585 -1.11,20.207 -0.346,21.501c1.851,3.134 7.709,4.167 11.959,2.11c1.795,-0.869 1.989,-0.891 2.436,-0.28c0.411,0.562 1.319,0.664 5.941,0.664l5.456,0l0.051,-2.5c0.028,-1.375 0.093,-2.894 0.144,-3.376c0.541,-5.081 0.78,-36.477 0.288,-37.724c-1.783,-4.516 -10.858,-7.288 -17.883,-5.461m48.096,0.407c2.562,1.325 2.705,2.052 2.697,13.728c-0.004,5.76 -0.094,10.559 -0.2,10.663c-0.106,0.104 -2.507,0.311 -5.334,0.46l-5.141,0.27l0.141,-8.865c0.154,-9.708 0.086,-10.002 -2.326,-10.002c-1.996,0 -2.044,0.404 -2.528,21.2c-0.248,10.67 -0.52,19.613 -0.605,19.873c-0.197,0.605 -10.034,0.719 -10.404,0.12c-0.137,-0.222 -0.026,-5.936 0.248,-12.698c0.274,-6.762 0.511,-17.335 0.527,-23.495l0.029,-11.2l5.3,-0.112l5.3,-0.111l0,1.073c0,0.983 0.059,1.023 0.7,0.479c2.646,-2.249 8.558,-2.954 11.596,-1.383m-95.641,0.309c-8.284,1.156 -10.455,4.656 -10.455,16.859l0,2.086l2.9,0.118c3.043,0.123 3.661,0.538 1.779,1.194c-4.02,1.402 -4.804,3.758 -5.13,15.432l-0.271,9.694l1.561,1.64c2.237,2.35 8.029,2.902 10.923,1.041c0.849,-0.546 1.083,-0.55 2,-0.034c0.761,0.428 2.317,0.575 5.838,0.549l4.8,-0.034l0.27,-5.4c0.547,-10.975 0.569,-38.117 0.03,-38.299c-0.275,-0.092 -0.5,-0.393 -0.5,-0.667c0,-2.59 -7.905,-4.993 -13.745,-4.179m8.173,1.385c2.136,0.599 3.634,1.647 5.257,3.677c0.613,0.767 0.666,1.792 0.509,9.77c-0.334,16.939 -0.661,30.517 -0.761,31.513c-0.099,0.996 -0.115,1 -4.582,1.071l-4.483,0.07l-0.234,-1.17c-0.288,-1.439 -0.585,-1.458 -2.013,-0.127c-2.559,2.385 -8.03,2.586 -10.427,0.383l-1.494,-1.373l0.101,-8.127c0.17,-13.621 0.274,-13.886 6.775,-17.164l3.497,-1.763l-4.933,-0.113l-4.933,-0.112l0.187,-5.488c0.214,-6.271 0.705,-7.586 3.526,-9.452c3.249,-2.151 9.494,-2.862 14.008,-1.595m248.835,0.982c-0.515,0.209 -1.07,0.297 -1.232,0.197c-0.452,-0.279 -4.031,0.757 -5.878,1.701c-3.374,1.725 -5.753,4.637 -5.753,7.04c0,0.546 -0.18,1.104 -0.4,1.24c-0.22,0.136 -0.4,0.676 -0.4,1.2c0,0.524 -0.16,1.051 -0.355,1.172c-0.311,0.192 -0.966,2.513 -1.024,3.628c-0.012,0.22 -0.12,0.49 -0.24,0.6c-0.121,0.11 -0.907,2.63 -1.746,5.6c-0.84,2.97 -1.631,5.67 -1.758,6c-0.127,0.33 -0.258,0.78 -0.292,1c-0.033,0.22 -0.272,0.917 -0.531,1.548c-1.064,2.595 -2.183,7.691 -1.919,8.74c0.807,3.207 8.671,5.713 15.536,4.951c1.391,-0.154 3.24,-0.358 4.108,-0.454c1.903,-0.209 5.391,-1.307 6.221,-1.959c0.33,-0.259 1.076,-0.674 1.659,-0.921c1.539,-0.654 2.973,-2.762 3.747,-5.505c0.372,-1.32 1.384,-4.729 2.249,-7.576c0.865,-2.846 1.63,-5.456 1.699,-5.8c0.069,-0.343 0.233,-0.894 0.364,-1.224c0.426,-1.072 2.002,-6.583 2.062,-7.207c0.032,-0.334 0.161,-0.784 0.286,-1c0.126,-0.216 0.359,-1.113 0.517,-1.993c0.159,-0.88 0.464,-1.813 0.679,-2.072c1.817,-2.2 -0.242,-7.718 -2.882,-7.726c-0.341,-0.001 -0.797,-0.179 -1.014,-0.396c-0.781,-0.781 -12.109,-1.429 -13.703,-0.784m44.137,0.233c-1.32,0.333 -3.278,1.055 -4.352,1.605l-1.952,0.998l0.193,-1.013c0.246,-1.288 -1.152,-1.544 -7.448,-1.367l-4.359,0.122l-0.545,2c-0.3,1.1 -0.833,3.08 -1.185,4.4c-0.352,1.32 -0.785,2.76 -0.962,3.2c-0.514,1.276 -7.651,26.674 -7.868,28c-0.109,0.66 -0.339,1.38 -0.513,1.6c-0.174,0.22 -0.441,1.03 -0.593,1.8c-0.152,0.77 -0.369,1.73 -0.483,2.133c-0.191,0.672 0.042,0.722 2.793,0.6c1.65,-0.073 2.905,0.019 2.79,0.206c-0.2,0.321 4.752,0.278 5.76,-0.051c0.261,-0.085 0.598,-0.725 0.749,-1.421c0.15,-0.697 0.808,-2.887 1.46,-4.867c0.653,-1.98 1.194,-4.005 1.201,-4.5c0.008,-0.495 0.179,-0.9 0.382,-0.9c0.202,0 0.331,-0.225 0.286,-0.5c-0.044,-0.275 0.019,-0.77 0.141,-1.1c0.696,-1.894 1.917,-6.411 2.078,-7.69c0.103,-0.819 0.372,-1.833 0.597,-2.253c0.418,-0.782 2.185,-7.091 2.976,-10.628c0.83,-3.708 4.118,-5.787 6.453,-4.079c0.729,0.533 0.712,0.7 -0.566,5.5c-1.535,5.765 -2.006,7.408 -2.484,8.669c-0.994,2.619 -1.123,2.576 7.851,2.586c3.56,0.004 4.228,-0.54 4.414,-3.594c0.043,-0.715 0.262,-1.527 0.486,-1.805c0.224,-0.278 0.776,-1.946 1.226,-3.706c0.45,-1.76 1.08,-4.045 1.401,-5.079c0.32,-1.033 0.487,-1.974 0.37,-2.09c-0.116,-0.116 -0.016,-0.446 0.222,-0.733c0.441,-0.531 0.563,-2.737 0.221,-3.991c-0.231,-0.845 -2.182,-1.761 -4.34,-2.039c-0.88,-0.113 -2.14,-0.299 -2.8,-0.413c-0.66,-0.114 -2.28,0.066 -3.6,0.4m63.81,0.213c-1.424,0.204 -2.878,0.632 -3.231,0.951c-0.353,0.32 -0.932,0.581 -1.287,0.581c-0.355,0 -0.756,0.18 -0.892,0.4c-0.136,0.22 -0.59,0.4 -1.01,0.4c-1.025,0 -3.59,2.299 -3.59,3.218c0,0.404 -0.159,0.833 -0.354,0.953c-0.194,0.121 -0.482,1.076 -0.639,2.124c-0.157,1.048 -0.397,2.085 -0.535,2.305c-1.037,1.66 -0.744,4.23 0.71,6.244c1.154,1.595 4.851,5.156 5.355,5.156c0.114,0 1.075,0.899 2.135,1.998c1.061,1.099 2.112,1.999 2.337,2c1.498,0.008 2.613,6.131 1.54,8.454c-0.241,0.521 -0.735,1.633 -1.098,2.47c-0.805,1.859 -2.825,2.896 -4.442,2.281c-1.522,-0.578 -1.591,-1.238 -0.558,-5.306c0.516,-2.033 0.941,-3.996 0.944,-4.361c0.003,-0.365 0.12,-0.78 0.261,-0.923c1.42,-1.435 -5.089,-2.578 -10.416,-1.829c-1.113,0.156 -1.701,1.126 -2.204,3.64c-0.063,0.317 -0.223,0.846 -0.355,1.176c-0.591,1.482 -1.46,4.955 -1.283,5.131c0.107,0.108 0,0.43 -0.238,0.717c-0.621,0.749 0.25,3.145 1.502,4.129c2.947,2.318 10.56,3.393 17.138,2.42c1.76,-0.26 3.571,-0.526 4.025,-0.592c1.864,-0.267 5.056,-1.998 6.372,-3.454c1.3,-1.439 1.6,-2.162 1.433,-3.451c-0.036,-0.275 0.086,-0.5 0.27,-0.5c0.383,0 1.49,-4.461 1.508,-6.077c0.006,-0.592 0.142,-1.207 0.302,-1.366c0.681,-0.681 0.25,-2.824 -0.81,-4.031c-0.605,-0.689 -1.55,-1.769 -2.1,-2.402c-0.55,-0.632 -1.742,-1.647 -2.648,-2.256c-4.099,-2.749 -8.812,-8.275 -7.866,-9.221c0.122,-0.122 0.292,-0.902 0.379,-1.734c0.301,-2.898 2.719,-4.918 5.082,-4.245c1.943,0.554 1.901,2.43 -0.21,9.262c-0.525,1.701 -1.004,1.538 5.463,1.856l5.6,0.275l0.543,-1.13c0.298,-0.622 0.626,-1.849 0.729,-2.726c0.103,-0.877 0.344,-1.691 0.536,-1.81c0.359,-0.222 0.937,-3.917 0.854,-5.457c-0.054,-1.004 -2.244,-3.338 -3.131,-3.338c-0.334,0 -1.085,-0.34 -1.669,-0.755c-2.024,-1.438 -8.772,-1.987 -14.452,-1.177m-363.829,4.353c-1.014,1.121 -1.417,10.379 -0.452,10.379c2.369,0 4.908,-8.79 2.971,-10.289c-1.052,-0.814 -1.839,-0.842 -2.519,-0.09m52.062,1.007c0.495,1.971 -0.617,6.883 -1.442,6.372c-0.577,-0.356 -0.509,-6.332 0.079,-6.92c0.726,-0.726 1.079,-0.585 1.363,0.548m209.804,-0.128c0.026,0.495 0.004,1.08 -0.049,1.3c-0.053,0.22 -0.26,1.03 -0.46,1.8c-0.2,0.77 -0.459,1.844 -0.575,2.388c-0.116,0.543 -0.357,1.173 -0.535,1.4c-0.179,0.226 -0.551,1.402 -0.827,2.612c-0.276,1.21 -0.599,2.47 -0.717,2.8c-0.262,0.73 -0.194,0.518 -1.025,3.245c-0.376,1.234 -0.756,2.618 -0.843,3.074c-0.088,0.456 -0.383,1.246 -0.656,1.755c-0.272,0.509 -0.44,0.926 -0.373,0.926c0.146,0 -1.665,6.287 -2.707,9.4c-0.858,2.563 -1.759,3.185 -4.62,3.194l-1.941,0.006l0.168,-1.7c0.149,-1.52 2.329,-9.656 3.134,-11.7c0.774,-1.965 1.579,-4.815 1.579,-5.591c0,-0.467 0.216,-1.065 0.48,-1.329c0.264,-0.264 0.332,-0.48 0.151,-0.48c-0.181,0 -0.149,-0.225 0.071,-0.5c0.221,-0.275 0.983,-2.57 1.695,-5.1c0.712,-2.53 1.394,-4.87 1.514,-5.2c0.121,-0.33 0.251,-0.69 0.289,-0.8c0.649,-1.88 1.478,-2.337 4.3,-2.375c1.698,-0.022 1.905,0.071 1.947,0.875m-260.053,2.6c-0.006,2.706 -0.561,4.494 -1.491,4.801c-0.555,0.183 -0.516,-6.11 0.043,-7.014c0.851,-1.376 1.454,-0.454 1.448,2.213m49.672,13.576c-2.242,1.104 -2.429,1.728 -2.667,8.889c-0.258,7.729 0.504,9.304 3.355,6.935c0.907,-0.754 1.872,-16.513 1.009,-16.491c-0.2,0.005 -0.964,0.305 -1.697,0.667m-49.954,0.377c-2.268,0.95 -2.656,2.32 -2.686,9.499c-0.029,6.958 0.134,7.446 2.301,6.902c1.659,-0.416 1.839,-1.285 1.907,-9.218c0.072,-8.442 0.187,-7.898 -1.522,-7.183m50.688,4.887c0,8.679 -0.764,11.831 -2.393,9.868c-0.817,-0.984 -0.047,-11.85 0.914,-12.908c1.317,-1.448 1.479,-1.115 1.479,3.04m-50.279,3.26c-0.21,6.847 -0.288,7.231 -1.428,7.056c-1.043,-0.159 -1.063,-0.374 -0.714,-7.743c0.202,-4.257 0.334,-4.961 1.026,-5.47c1.174,-0.862 1.308,-0.12 1.116,6.157" id="path2"/>
   <path fill-rule="evenodd" fill="#58009b" d="m287.213,0.311c-0.075,0.068 -2.927,0.343 -6.337,0.611c-8.106,0.637 -7.809,0.607 -13.6,1.407c-5.778,0.799 -5.489,0.753 -10.2,1.608c-1.98,0.36 -4.05,0.716 -4.6,0.792c-2.142,0.298 -17.24,3.516 -21.6,4.605c-2.53,0.632 -5.05,1.238 -5.6,1.348c-2.56,0.512 -17.003,4.511 -24.2,6.701c-4.4,1.339 -8.949,2.711 -10.109,3.048c-1.159,0.337 -2.037,0.685 -1.949,0.772c0.087,0.088 3.376,-0.737 7.308,-1.832c10.9,-3.036 25.309,-6.595 30.116,-7.438c0.752,-0.132 1.472,-0.303 1.6,-0.38c0.393,-0.235 19.089,-3.646 21.834,-3.983c0.88,-0.109 2.86,-0.382 4.4,-0.608c17.619,-2.587 40.504,-2.628 52.6,-0.095c14.784,3.096 24.124,10.071 26.244,19.599c0.712,3.2 0.607,8.842 -0.204,10.962l-0.42,1.1l7.585,0l7.585,0l0.928,-1.5c10.884,-17.584 -3.952,-32.027 -37.118,-36.134c-3.202,-0.397 -23.918,-0.894 -24.263,-0.583m-28.537,25.042c-1.32,0.16 -3.66,0.4 -5.2,0.534c-1.54,0.135 -3.16,0.31 -3.6,0.391c-0.44,0.081 -1.7,0.273 -2.8,0.427c-2.752,0.386 -4.581,0.665 -5.351,0.816c-16.481,3.241 -40.892,9.897 -39.908,10.882c0.077,0.076 4.351,-0.937 9.499,-2.251c5.148,-1.314 9.857,-2.475 10.463,-2.58c0.607,-0.106 1.417,-0.287 1.8,-0.402c0.701,-0.212 1.029,-0.285 4.697,-1.045c1.1,-0.227 2.36,-0.49 2.8,-0.584c27.634,-5.866 44.817,-3.919 48.209,5.462l0.527,1.457l3.232,-0.148c1.778,-0.081 3.989,-0.155 4.914,-0.166c3.571,-0.039 3.039,-6.476 -0.762,-9.23c-4.183,-3.03 -18.315,-4.796 -28.52,-3.563m-223.5,16.651c-1.029,0.269 -1.031,0.309 -1.317,20.924c-0.145,10.45 -0.393,22.96 -0.553,27.8c-0.159,4.84 -0.257,8.849 -0.218,8.908c0.128,0.194 9.344,0.269 9.532,0.078c0.319,-0.325 1.027,-23.573 1.252,-41.086l0.217,-16.9l-4.107,0.046c-2.258,0.026 -4.421,0.129 -4.806,0.23m194.4,1.634l-6.3,0.11l-1.352,2.69c-0.744,1.48 -2.289,4.76 -3.435,7.29c-1.145,2.53 -2.579,5.68 -3.187,7c-0.607,1.32 -1.606,3.75 -2.219,5.4c-1.913,5.148 -1.896,4.745 0.34,-8.2c0.114,-0.66 0.324,-2.01 0.468,-3c0.37,-2.549 0.599,-4.047 0.795,-5.2c0.094,-0.55 0.288,-2.035 0.43,-3.3l0.259,-2.3l-6.749,0.047c-6.961,0.049 -8.695,0.242 -8.827,0.984c-0.042,0.236 -0.178,1.226 -0.303,2.2c-0.124,0.973 -0.317,2.399 -0.428,3.169c-0.111,0.77 -0.304,2.12 -0.429,3c-0.124,0.88 -0.301,2.05 -0.392,2.6c-0.09,0.55 -0.254,1.72 -0.363,2.6c-0.109,0.88 -1.46,10.29 -3.003,20.912c-1.543,10.621 -2.805,19.67 -2.805,20.108c0,0.773 0.244,0.793 8.426,0.688l8.425,-0.108l0.576,-1c0.317,-0.55 1.404,-2.8 2.417,-5c1.012,-2.2 2.51,-5.44 3.328,-7.2c0.818,-1.76 2.992,-6.482 4.831,-10.494c1.839,-4.011 3.385,-7.251 3.437,-7.199c0.051,0.051 -0.348,2.253 -0.888,4.893c-0.54,2.64 -1.844,9.615 -2.898,15.5l-1.916,10.7l8.272,0l8.272,0l2.127,-4.7c2.583,-5.711 4.423,-9.694 7.989,-17.3c3.419,-7.291 9.457,-20.359 12.223,-26.45c1.162,-2.557 2.487,-5.385 2.945,-6.284c1.334,-2.615 1.504,-2.544 -5.733,-2.416l-6.567,0.115l-1.606,3.418c-0.883,1.879 -2.269,4.947 -3.08,6.817c-0.812,1.87 -1.833,4.21 -2.27,5.2c-0.437,0.99 -1.033,2.34 -1.323,3c-0.291,0.66 -1.172,2.599 -1.958,4.309c-0.786,1.71 -1.429,3.274 -1.429,3.476c0,0.202 -0.161,0.467 -0.357,0.588c-0.207,0.128 -0.217,-0.407 -0.023,-1.276c0.477,-2.143 0.742,-3.643 1.003,-5.697c0.127,-0.99 0.304,-2.07 0.394,-2.4c0.09,-0.33 0.266,-1.32 0.391,-2.2c0.125,-0.88 0.506,-3.13 0.847,-5c0.341,-1.87 0.697,-4.03 0.793,-4.8c0.095,-0.77 0.252,-1.67 0.348,-2c0.74,-2.536 0.639,-3.199 -0.49,-3.233c-0.608,-0.019 -1.466,-0.064 -1.906,-0.1c-0.44,-0.037 -3.635,-0.017 -7.1,0.043m104.522,0.631c-0.213,0.562 -1.013,3.325 -1.776,6.141c-0.763,2.815 -1.949,7.008 -2.635,9.318c-0.685,2.31 -1.325,4.56 -1.42,5c-0.096,0.44 -2.428,8.691 -5.182,18.336c-2.755,9.645 -5.009,17.592 -5.009,17.661c0,1.249 14.863,0.277 15.242,-0.997c0.426,-1.434 2.754,-9.687 2.933,-10.4c0.689,-2.742 1.839,-6.947 1.922,-7.031c0.057,-0.057 0.069,1.727 0.027,3.964c-0.042,2.237 0.058,5.473 0.222,7.191c0.164,1.719 0.199,3.186 0.076,3.262c-0.122,0.075 -0.16,1.144 -0.085,2.375l0.137,2.239l7.359,0l7.358,0l-0.188,-3.5c-0.104,-1.925 -0.282,-7.623 -0.396,-12.662l-0.207,-9.161l3.25,-5.239c5.548,-8.944 9.626,-15.895 9.437,-16.085c-0.203,-0.203 -14.312,-0.282 -14.456,-0.081c-0.05,0.07 -1.937,3.248 -4.193,7.062c-2.257,3.814 -4.175,6.863 -4.262,6.775c-0.087,-0.087 0.649,-3.117 1.635,-6.734c0.987,-3.616 1.875,-6.901 1.973,-7.299c0.099,-0.399 0.737,-2.895 1.418,-5.547c0.681,-2.652 1.125,-4.936 0.985,-5.075c-0.139,-0.14 -3.296,-0.317 -7.015,-0.394l-6.761,-0.14l-0.389,1.021m-95.89,0.559c0.098,0.165 -0.427,3.81 -1.168,8.1c-0.741,4.29 -1.541,9.06 -1.779,10.6c-0.584,3.79 -2.626,13.735 -3.552,17.3c-1.131,4.354 -0.405,3.491 1.345,-1.6c1.358,-3.949 8.712,-21.111 13.37,-31.2l1.615,-3.5l5.419,0c2.98,0 5.418,0.073 5.418,0.163c0,0.186 -1.782,4.181 -3.316,7.437c-0.571,1.21 -5.647,12.19 -11.281,24.4c-5.635,12.21 -10.383,22.339 -10.552,22.508c-0.332,0.333 -14.028,0.448 -14.355,0.121c-0.109,-0.109 0.204,-2.41 0.695,-5.114c0.492,-2.703 1.221,-6.805 1.62,-9.115c0.955,-5.528 4.253,-21.818 4.777,-23.597c1.46,-4.953 -1.102,-0.11 -5.184,9.797c-1.972,4.789 -5.95,13.604 -11.415,25.3l-1.356,2.9l-4.916,0.032c-6.423,0.041 -10.071,-0.053 -10.283,-0.265c-0.094,-0.094 0.485,-4.715 1.287,-10.269c4.32,-29.928 6.277,-43.227 6.373,-43.303c0.058,-0.046 3.031,-0.199 6.606,-0.341l6.5,-0.257l0,1.004c0,2.586 -3.615,24.217 -5.333,31.905c-1.452,6.5 -1.348,7.084 0.338,1.894c2.51,-7.731 7.726,-20.25 13.165,-31.6l1.438,-3l4.096,-0.222c6.809,-0.368 10.239,-0.394 10.428,-0.078m108.911,0.4c-0.117,0.385 -0.302,1.15 -0.413,1.7c-0.111,0.55 -1.091,4.33 -2.177,8.4c-1.087,4.07 -1.893,7.535 -1.791,7.7c0.102,0.165 0.015,0.3 -0.193,0.3c-0.208,0 -0.464,0.495 -0.569,1.1c-0.106,0.605 -0.755,3.246 -1.444,5.869c-0.689,2.622 -1.196,4.824 -1.128,4.892c0.119,0.12 4.289,-6.604 9.589,-15.461l2.513,-4.2l5.785,0.148c3.182,0.082 5.848,0.204 5.924,0.273c0.17,0.152 -2.513,4.697 -7.732,13.099l-3.926,6.32l0.287,12.38c0.235,10.127 0.192,12.384 -0.24,12.4c-3.194,0.12 -11.793,-0.125 -12.011,-0.343c-0.156,-0.156 -0.312,-5.052 -0.347,-10.88c-0.035,-5.828 -0.186,-10.929 -0.335,-11.334c-0.175,-0.474 -1.388,3.246 -3.394,10.4c-1.718,6.125 -3.296,11.35 -3.509,11.61c-0.379,0.466 -7.935,0.955 -7.933,0.514c0.001,-0.117 -0.93,-0.254 -2.069,-0.303c-2.581,-0.112 -2.503,-0.006 -1.779,-2.445c0.426,-1.435 0.471,-2.039 0.151,-2.039c-0.25,0 -0.173,-0.225 0.172,-0.5c0.37,-0.295 2.218,-6.23 4.515,-14.5c2.138,-7.7 4.666,-16.79 5.618,-20.2c0.951,-3.41 2.306,-8.315 3.011,-10.9l1.282,-4.7l6.177,0c5.697,0 6.16,0.054 5.966,0.7m-199.594,6.11c-1.203,0.208 -2.536,0.808 -3.477,1.564c-1.837,1.477 -1.744,1.47 -3.089,0.219c-2.752,-2.559 -7.964,-2.341 -11.25,0.471c-1.923,1.647 -1.909,1.647 -1.709,-0.064l0.164,-1.4l-5.028,0l-5.027,0l-0.125,7.7c-0.07,4.235 -0.171,14.402 -0.226,22.593c-0.054,8.192 -0.208,15.437 -0.341,16.1l-0.241,1.207l4.996,0l4.997,0l0.202,-6.3c0.111,-3.465 0.23,-11.97 0.264,-18.9c0.065,-13.394 0.196,-15.122 1.203,-15.88c0.661,-0.497 2.781,-0.331 3.38,0.264c0.189,0.188 0.279,9.431 0.2,20.541l-0.142,20.2l4.9,-0.06c2.695,-0.033 4.902,-0.061 4.903,-0.062c0.002,-0.002 0.096,-8.013 0.208,-17.803c0.274,-23.894 0.241,-23.6 2.643,-23.6c1.59,0 2.638,0.736 2.5,1.755c-0.063,0.465 -0.204,9.575 -0.314,20.245l-0.199,19.4l4.819,-0.073c2.65,-0.04 4.882,-0.135 4.958,-0.212c0.854,-0.853 0.868,-43.802 0.016,-45.45c-1.104,-2.135 -5.013,-3.179 -9.185,-2.455m-47.249,0.361c-1.545,0.373 -2.97,1.119 -4.097,2.146l-0.896,0.816l-0.25,-1.246l-0.249,-1.246l-4.894,-0.013l-4.895,-0.012l-0.262,15.292c-0.145,8.411 -0.377,19.117 -0.517,23.792l-0.253,8.5l5.038,0l5.039,0l0.209,-1.3c0.116,-0.715 0.349,-9.688 0.519,-19.939c0.341,-20.616 0.245,-19.961 2.908,-19.961c2.416,0 2.447,0.141 2.178,9.753l-0.242,8.647l5.25,0l5.25,0l-0.118,-11.233l-0.118,-11.234l-1.279,-1.142c-1.985,-1.772 -5.141,-2.387 -8.321,-1.62m-40.867,1.193c-5.476,1.39 -7.185,4.294 -7.305,12.417l-0.066,4.419l5.019,0l5.019,0l0.006,-4.7c0.007,-5.395 0.401,-6.63 2.184,-6.834c1.631,-0.187 2.21,0.786 2.208,3.71c-0.005,5.174 -1.728,7.394 -8.078,10.406c-6.083,2.887 -6.132,3.005 -6.498,15.74l-0.257,8.923l1.317,1.317c2.712,2.711 8.179,2.35 11.718,-0.774l1.2,-1.06l0.2,1.336l0.2,1.336l3,0.2c1.65,0.11 3.745,0.138 4.656,0.063l1.656,-0.137l0.248,-3.263c0.52,-6.827 1.064,-35.375 0.704,-36.976c-1.131,-5.035 -9.557,-8.047 -17.131,-6.123m-50.247,1.382c-3.016,1.027 -5.247,2.868 -5.849,4.825c-0.622,2.02 -0.735,11.237 -0.137,11.189c0.275,-0.022 2.39,-0.067 4.7,-0.1l4.2,-0.06l0.006,-4.5c0.007,-5.044 0.434,-6.432 2.038,-6.62c1.633,-0.192 2.169,0.848 2.065,4.005c-0.166,5.012 -1.221,6.493 -6.509,9.141c-4.187,2.097 -5.827,3.28 -6.588,4.75c-0.811,1.569 -1.527,18.403 -0.867,20.404c1.192,3.614 8.244,4.112 11.966,0.845l1.399,-1.229l0.263,1.402l0.263,1.402l4.35,0l4.35,0l0.242,-2.5c0.489,-5.053 0.918,-36.774 0.519,-38.346c-1.202,-4.737 -9.334,-7.02 -16.411,-4.608m260.514,-0.839c-0.11,0.11 -1.01,0.3 -2,0.425c-8.422,1.056 -12.659,5.527 -14.661,15.468c-0.066,0.33 -0.848,2.94 -1.737,5.8c-0.888,2.86 -1.684,5.47 -1.767,5.8c-0.083,0.33 -0.89,3.101 -1.793,6.158c-2.444,8.275 -2.089,9.945 2.539,11.934c5.993,2.575 20.58,2.034 24.37,-0.904c3.637,-2.819 4.558,-4.136 5.613,-8.024c0.323,-1.19 1.861,-6.484 3.417,-11.764c1.557,-5.28 2.909,-9.923 3.005,-10.317c0.096,-0.395 0.357,-1.295 0.58,-2c1.314,-4.155 1.472,-4.974 1.203,-6.234c-0.868,-4.062 -4.999,-6.094 -12.919,-6.355c-3.108,-0.102 -5.74,-0.096 -5.85,0.013m28.956,0.606l-4.444,0.112l-0.719,2.688c-0.396,1.478 -1.053,3.767 -1.462,5.087c-0.408,1.32 -0.909,3.03 -1.113,3.8c-0.204,0.77 -0.653,2.39 -0.999,3.6c-0.346,1.21 -0.805,2.83 -1.021,3.6c-0.216,0.77 -1.035,3.65 -1.82,6.4c-0.785,2.75 -1.509,5.4 -1.609,5.89c-0.099,0.489 -0.375,1.389 -0.612,2c-0.237,0.61 -0.501,1.47 -0.587,1.91c-0.086,0.44 -0.854,3.162 -1.707,6.05l-1.551,5.249l2.444,0.191c1.344,0.104 4.618,0.228 7.274,0.274l4.83,0.084l2.654,-9.124c3.055,-10.506 7.271,-25.407 7.649,-27.034c0.38,-1.637 1.542,-2.635 2.79,-2.397c1.27,0.243 1.293,0.675 0.237,4.316c-0.446,1.535 -0.905,3.228 -1.021,3.763c-0.116,0.535 -0.304,1.123 -0.418,1.307c-0.113,0.184 -0.281,0.736 -0.373,1.228c-0.092,0.491 -0.517,2.108 -0.944,3.593l-0.778,2.7l2.472,0.07c1.36,0.039 4.617,0.084 7.239,0.1l4.766,0.03l0.876,-2.7c0.482,-1.485 0.816,-2.7 0.743,-2.7c-0.073,0 0.059,-0.495 0.293,-1.1c0.235,-0.605 0.484,-1.384 0.554,-1.73c0.071,-0.347 0.775,-2.947 1.565,-5.778c1.575,-5.648 1.73,-7.264 0.854,-8.958c-1.603,-3.098 -9.94,-3.838 -15.677,-1.391c-0.252,0.108 -0.432,-0.096 -0.4,-0.454c0.067,-0.737 -2.021,-0.878 -9.985,-0.676m79.263,0.002c-0.132,0.131 -1,0.306 -1.93,0.387c-0.929,0.081 -2.004,0.175 -2.389,0.208c-0.385,0.034 -0.7,0.203 -0.7,0.376c0,0.173 -0.228,0.314 -0.506,0.314c-3.196,0 -6.529,3.853 -7.867,9.095c-1.696,6.641 -1.336,7.536 5.459,13.598l3.686,3.288l-3.286,-0.051c-8.09,-0.125 -10.686,0.042 -10.686,0.688c0,0.34 -0.641,2.854 -1.425,5.587c-2.112,7.367 -1.969,8.78 1.12,11.018c4.013,2.907 12.982,3.854 20.605,2.175c0.495,-0.109 1.239,-0.274 1.653,-0.366c1.027,-0.229 3.977,-1.756 5.341,-2.765c1.965,-1.453 2.513,-2.791 4.94,-12.067c0.974,-3.725 -0.684,-6.718 -6.165,-11.129c-0.732,-0.589 -1.092,-1.089 -0.8,-1.111c0.292,-0.022 0.081,-0.19 -0.469,-0.374c-0.61,-0.204 1.244,-0.306 4.761,-0.26l5.76,0.074l1.34,-5.555c1.791,-7.424 1.309,-9.1 -3.261,-11.342c-3.081,-1.512 -14.154,-2.816 -15.181,-1.788m-97.605,0.921c4.017,0.743 7.386,3.138 7.386,5.252c0,0.918 -0.043,1.07 -5.653,19.912l-3.99,13.4l-1.88,1.834c-6.906,6.738 -28.877,5.589 -28.877,-1.511c0,-0.805 1.818,-7.597 4.04,-15.093c2.222,-7.497 4.315,-14.57 4.653,-15.72c1.934,-6.595 12.802,-10.203 24.321,-8.074m41.579,0.535c2.786,1.164 2.849,3.072 0.382,11.44c-1.003,3.404 -2.055,7.195 -2.337,8.426c-0.282,1.23 -0.641,2.445 -0.799,2.7c-0.417,0.674 -12.239,0.65 -12.239,-0.025c0,-0.269 0.912,-3.692 2.027,-7.607c2.33,-8.182 2.361,-8.849 0.418,-9.034c-3.635,-0.348 -3.533,-0.542 -7.841,14.799c-5.416,19.281 -6.435,22.721 -6.859,23.145c-0.379,0.379 -11.647,0.617 -12.01,0.253c-0.222,-0.221 11.124,-40.284 12.225,-43.168l0.42,-1.1l6.06,0l6.06,0l-0.253,1.265c-0.236,1.18 -0.206,1.223 0.45,0.651c2.788,-2.433 10.42,-3.364 14.296,-1.745m69.07,0.601c6.021,1.893 6.422,3.566 3.448,14.363l-0.368,1.335l-5.823,-0.22c-6.961,-0.263 -6.377,0.203 -5.303,-4.233c0.786,-3.241 0.84,-4.608 0.158,-3.925c-0.203,0.203 -1.142,3.331 -1.579,5.262c-0.337,1.489 -1.319,1.347 -2.432,-0.353c-0.834,-1.272 -0.199,-4.966 1.073,-6.238c1.06,-1.06 3.163,-1.035 3.163,0.037c0,0.44 0.18,0.8 0.4,0.8c0.557,0 0.501,-1.339 -0.08,-1.92c-1.202,-1.202 -4.968,-0.095 -5.17,1.52c-0.061,0.487 -0.08,0.561 -0.706,2.748c-0.81,2.828 0.593,4.736 6.946,9.45c3.524,2.615 6.605,6.359 6.609,8.029c0.003,2.027 -2.791,11.488 -3.774,12.776c-4.433,5.812 -23.579,6.708 -28.437,1.331c-1.811,-2.004 -1.771,-2.407 1.331,-13.334l0.341,-1.2l5.837,0c7.124,0 6.742,-0.423 5.158,5.717c-1.448,5.61 -1.389,6.346 0.535,6.708c3.001,0.563 4.673,-1.734 5.284,-7.261c0.316,-2.859 -0.575,-4.478 -4.233,-7.691c-9.609,-8.443 -10.465,-10.957 -6.543,-19.222c2.253,-4.749 15.5,-7.204 24.165,-4.479m-121.401,4.759c-0.364,0.403 -0.662,0.903 -0.662,1.111c0,0.209 -0.73,2.715 -1.621,5.569c-0.892,2.854 -2.23,7.259 -2.974,9.789c-0.744,2.53 -2.096,7.096 -3.004,10.146c-1.949,6.546 -1.934,6.654 0.924,6.654c2.937,0 3.061,-0.194 5.605,-8.8c1.203,-4.07 3.311,-11.121 4.684,-15.669c1.372,-4.547 2.387,-8.552 2.253,-8.9c-0.365,-0.953 -4.321,-0.877 -5.205,0.1m4.138,0.47c0,0.22 -1.636,5.845 -3.636,12.5c-3.293,10.96 -4.193,14.031 -5.01,17.099c-0.447,1.676 -1.351,2.4 -2.997,2.4l-1.519,0l0.525,-1.7c0.289,-0.935 2.368,-7.82 4.62,-15.3c2.253,-7.48 4.352,-14.005 4.666,-14.5c0.59,-0.932 3.351,-1.343 3.351,-0.499m-207.277,22.632c-0.137,9.173 -0.199,9.367 -2.976,9.367c-1.855,0 -1.926,-0.295 -1.795,-7.384c0.14,-7.588 1.228,-10.015 4.571,-10.198c0.177,-0.01 0.267,3.687 0.2,8.215m-49.958,-2.933c-0.08,11.243 -0.421,12.681 -3.016,12.694c-2.022,0.01 -2.115,-0.381 -1.791,-7.456c0.325,-7.088 0.583,-7.904 2.964,-9.356c1.891,-1.153 1.881,-1.177 1.843,4.118m359.497,3.122l1.074,1.623l-0.718,3.077c-0.804,3.45 -1.291,4.603 -1.81,4.283c-0.194,-0.12 -0.466,-0.035 -0.604,0.188c-0.409,0.663 -2.204,0.489 -2.204,-0.213c0,-0.66 2.365,-9.774 2.668,-10.28c0.303,-0.506 0.483,-0.357 1.594,1.322m-326.349,19.078c-4.088,4.683 -5.126,12.133 -2.467,17.7c4.182,8.754 15.217,14.258 33.754,16.835c4.001,0.556 24.069,0.802 28.4,0.348c1.65,-0.174 5.07,-0.522 7.6,-0.775c2.53,-0.253 6.49,-0.725 8.8,-1.048c2.31,-0.323 4.837,-0.674 5.616,-0.78c0.779,-0.107 1.859,-0.283 2.4,-0.392c0.541,-0.109 2.964,-0.558 5.384,-0.996c5.177,-0.939 4.985,-0.9 9.6,-1.929c1.98,-0.441 4.14,-0.887 4.8,-0.991c0.66,-0.104 3,-0.642 5.2,-1.196c2.2,-0.555 5.049,-1.219 6.332,-1.477c4.487,-0.902 1.984,-0.756 -3.643,0.213c-25.759,4.436 -55.717,6.133 -69.689,3.948c-23.737,-3.711 -34.097,-14.537 -28.191,-29.46c0.257,-0.65 -0.207,-0.7 -6.504,-0.7c-5.959,0 -6.855,0.085 -7.392,0.7m40.754,-0.033c-0.511,0.511 -0.262,3.822 0.39,5.197c2.67,5.626 18.086,7.539 36.543,4.535c1.21,-0.197 2.83,-0.454 3.6,-0.571c6.356,-0.969 27.186,-6.408 27.989,-7.309c0.116,-0.13 -0.149,-0.143 -0.589,-0.028c-0.44,0.114 -2.51,0.668 -4.6,1.23c-3.271,0.879 -5.852,1.419 -11.8,2.471c-22.402,3.959 -39.528,2.215 -41.456,-4.221l-0.471,-1.571l-4.67,0c-2.568,0 -4.79,0.12 -4.936,0.267m104.636,9.78c-6.934,2.002 -6.965,15.741 -0.041,17.7c5.661,1.602 10.077,-1.631 10.635,-7.788c0.656,-7.229 -4.189,-11.762 -10.594,-9.912m13.497,0.247c0,0.174 0.405,0.494 0.9,0.711c0.884,0.388 0.901,0.527 0.961,7.922l0.06,7.526l-0.96,0.438c-1.68,0.765 -1.048,1.109 2.039,1.109c1.65,0 3.13,0.014 3.29,0.03c0.819,0.085 0.4,-0.771 -0.487,-0.994c-1.653,-0.414 -1.397,-7.567 0.277,-7.761c1.432,-0.165 2.72,0.564 2.72,1.539c0,0.432 0.225,0.786 0.5,0.786c0.348,0 0.496,-0.76 0.487,-2.5c-0.012,-2.421 -0.655,-3.826 -0.915,-2c-0.113,0.794 -0.359,0.9 -2.1,0.9l-1.972,0l0,-3.148l0,-3.147l1.378,-0.224c2.206,-0.358 3.6,0.188 3.751,1.469c0.203,1.734 0.984,0.999 1.03,-0.97l0.041,-1.78l-5.5,-0.111c-3.025,-0.061 -5.5,0.031 -5.5,0.205m20.4,0.406c0,0.275 0.339,0.5 0.753,0.5c1.245,0 1.665,8.266 0.895,17.6l-0.248,3l-1.3,-0.004c-1.154,-0.003 -1.3,0.121 -1.3,1.1c0,1.57 1.219,1.447 3.177,-0.322c2.549,-2.304 2.701,-3.044 2.772,-13.511c0.049,-7.179 0.089,-7.548 0.851,-7.747c1.973,-0.516 0.682,-1.116 -2.401,-1.116c-2.293,0 -3.199,0.142 -3.199,0.5m16.913,-0.37c-0.407,0.251 -3.439,8.572 -5.141,14.104c-0.31,1.009 -0.926,2.162 -1.368,2.562c-1.267,1.147 -0.975,1.404 1.596,1.404c2.468,0 3.194,-0.514 1.371,-0.971c-1.076,-0.271 -1.106,-1.138 -0.13,-3.729c0.571,-1.516 5.806,-1.352 6.398,0.2c0.922,2.42 0.926,3.332 0.016,3.57c-1.725,0.451 -0.781,0.932 1.945,0.99c1.54,0.033 3.01,0.078 3.267,0.1c0.809,0.069 0.813,-0.881 0.004,-1.138c-0.695,-0.22 -6.451,-15.004 -6.181,-15.874c0.153,-0.495 -1.317,-1.502 -1.777,-1.218m17.287,0.153c-7.82,2.733 -7.56,15.775 0.362,18.128c3.534,1.05 7.663,0.264 8.376,-1.594c0.27,-0.704 -0.257,-0.796 -1.315,-0.23c-6.194,3.316 -12.624,-5.127 -9.123,-11.979c2.192,-4.289 8.612,-4.622 9.025,-0.468c0.2,2.003 1.17,1.567 1.343,-0.603c0.253,-3.188 -4.14,-4.837 -8.668,-3.254m11.525,0.499c0.076,0.23 0.512,0.473 0.969,0.541c0.978,0.145 1.121,1.229 1.255,9.571c0.086,5.356 -0.22,6.906 -1.363,6.906c-1.692,0 -0.269,0.809 1.514,0.86c1.155,0.034 2.689,0.079 3.41,0.1c0.969,0.03 1.275,-0.116 1.176,-0.56c-0.073,-0.33 -0.342,-0.557 -0.598,-0.504c-1.056,0.219 -1.304,-1.601 -1.197,-8.787c0.108,-7.238 0.118,-7.31 1.009,-7.437c2.479,-0.352 0.689,-1.073 -2.706,-1.09c-2.338,-0.012 -3.558,0.128 -3.469,0.4m12.575,-0.315c-0.385,0.106 -0.7,0.444 -0.7,0.752c0,0.468 -2.815,4.008 -5.692,7.156c-0.943,1.033 -0.892,1.401 0.398,2.873c0.602,0.686 2.084,2.708 3.294,4.492l2.2,3.245l2.3,0.007c1.781,0.006 2.3,-0.127 2.3,-0.592c0,-0.33 -0.269,-0.6 -0.597,-0.6c-0.504,0 -3.299,-3.499 -6.898,-8.634l-0.865,-1.234l3.08,-3.268c2.087,-2.214 3.37,-3.267 3.98,-3.266c0.495,0.001 0.9,-0.178 0.9,-0.398c0,-0.22 -0.315,-0.402 -0.7,-0.405c-0.385,-0.003 -1.06,-0.076 -1.5,-0.163c-0.44,-0.086 -1.115,-0.07 -1.5,0.035m10.208,0.326c-4.875,2.119 -3.752,8.25 1.907,10.413c2.934,1.121 3.585,1.792 3.585,3.698c0,4.01 -6.532,4.05 -7.411,0.046c-0.417,-1.9 -0.989,-1.299 -0.989,1.04c0,2.772 0.91,3.382 4.891,3.279c7.594,-0.197 8.915,-8.93 1.709,-11.301c-3.214,-1.058 -3.8,-1.568 -3.8,-3.307c0,-3.937 5.448,-4.528 6.172,-0.671c0.402,2.142 1.028,1.684 1.028,-0.751c0,-2.922 -3.344,-4.075 -7.092,-2.446m16.736,0.435c-7.263,3.411 -6.101,16.335 1.636,18.191c6.85,1.644 11.707,-3.872 10.312,-11.712c-1.072,-6.024 -6.569,-9.005 -11.948,-6.479m-113.845,0.691c2.987,2.987 3.047,11.224 0.1,13.705c-2.615,2.2 -6.094,0.703 -7.11,-3.061c-2.087,-7.728 2.683,-14.971 7.01,-10.644m129.47,-0.653c-0.604,0.459 -0.58,0.51 0.241,0.521c1.444,0.02 1.731,1.549 1.648,8.784c-0.087,7.674 -0.141,8.029 -1.218,8.029c-0.451,0 -0.736,0.212 -0.646,0.482c0.207,0.62 4.817,0.584 5.025,-0.039c0.081,-0.244 -0.233,-0.443 -0.698,-0.443c-1.112,0 -1.116,-0.019 -1.397,-7.1c-0.285,-7.167 -0.247,-7.205 2.815,-2.8c6.855,9.863 7.83,11.1 8.746,11.1l0.909,0l-0.162,-8.602l-0.163,-8.601l1.016,-0.463c1.678,-0.764 1.161,-1.134 -1.585,-1.134c-2.16,0 -2.6,0.113 -2.6,0.667c0,0.366 0.114,0.553 0.253,0.414c1.243,-1.244 1.747,0.606 1.747,6.419c0,6.902 0.547,7.034 -5.408,-1.3c-4.595,-6.43 -6.305,-7.621 -8.523,-5.934m-9.097,1.877c3.178,3.369 3.046,12.793 -0.202,14.472c-4.318,2.233 -7.784,-1.438 -7.756,-8.215c0.028,-6.61 4.39,-10.04 7.958,-6.257m-74.101,4.822c1.219,3.389 1.203,3.435 -1.15,3.435c-2.247,0 -2.421,-0.495 -1.326,-3.786c1.09,-3.274 1.177,-3.261 2.476,0.351m109.929,-1.412c0,0.195 0.341,0.443 0.757,0.552c0.671,0.175 0.789,0.763 1.044,5.171c0.342,5.936 0.282,6.357 -1.005,7.008c-0.548,0.277 -0.906,0.511 -0.796,0.52c5.873,0.453 6.85,0.319 5.2,-0.711c-0.738,-0.461 -0.8,-0.933 -0.8,-6.134c0,-5.297 0.048,-5.646 0.8,-5.843c1.746,-0.457 0.642,-0.916 -2.2,-0.916c-1.65,0 -3,0.159 -3,0.353m10.863,4.473c-0.515,0.207 -1.088,0.282 -1.272,0.168c-0.185,-0.114 -0.463,0 -0.62,0.252c-0.156,0.253 0.012,0.625 0.373,0.827c0.927,0.518 0.979,7.127 0.056,7.127c-0.33,0 -0.6,0.18 -0.6,0.4c0,0.229 1.153,0.391 2.7,0.379c2.571,-0.02 2.657,-0.051 1.8,-0.649c-1.303,-0.909 -1.359,-6.256 -0.073,-6.944c1.954,-1.046 3.173,1.27 3.173,6.03c0,1.494 0.011,1.504 1.8,1.647c1.924,0.153 2.297,-0.169 1,-0.863c-0.698,-0.373 -0.8,-0.838 -0.8,-3.632c0,-4.343 -2.465,-6.76 -4.657,-4.568c-0.33,0.33 -0.767,0.6 -0.972,0.6c-0.204,0 -0.371,-0.27 -0.371,-0.6c0,-0.68 -0.214,-0.704 -1.537,-0.174m14.137,0.718c-3.371,2.083 -3.708,5.697 -0.749,8.025c1.275,1.003 4.195,1.139 4.949,0.231c0.424,-0.511 0.32,-0.6 -0.697,-0.6c-3.581,0 -5.563,-6.217 -2.248,-7.05c0.89,-0.223 1.25,-0.064 2.012,0.889c0.863,1.079 0.929,1.1 0.931,0.294c0.001,-0.477 0.123,-1.182 0.27,-1.566c0.183,-0.476 0.119,-0.606 -0.2,-0.409c-0.257,0.159 -0.468,0.099 -0.468,-0.134c0,-0.691 -2.505,-0.48 -3.8,0.32m8.085,6.304c-0.61,0.61 -0.272,2.102 0.534,2.358c1.051,0.334 2.054,-0.496 1.9,-1.571c-0.12,-0.84 -1.828,-1.393 -2.434,-0.787" id="path3"/>
   <path fill-rule="evenodd" fill="#8c4f6a" d="m271.981,25.211c0.497,0.096 1.217,0.092 1.6,-0.008c0.382,-0.1 -0.025,-0.179 -0.905,-0.174c-0.88,0.004 -1.193,0.086 -0.695,0.182m-19.805,3.193c0.385,0.1 1.015,0.1 1.4,0c0.385,-0.101 0.07,-0.183 -0.7,-0.183c-0.77,0 -1.085,0.082 -0.7,0.183m-19.6,16.411c0.605,0.091 1.595,0.091 2.2,0c0.605,-0.092 0.11,-0.167 -1.1,-0.167c-1.21,0 -1.705,0.075 -1.1,0.167m-21.793,0.403c0.719,0.089 1.799,0.087 2.4,-0.004c0.601,-0.091 0.013,-0.164 -1.307,-0.162c-1.32,0.002 -1.812,0.077 -1.093,0.166m-82.998,17.31c0,0.99 0.078,1.395 0.173,0.9c0.096,-0.495 0.096,-1.305 0,-1.8c-0.095,-0.495 -0.173,-0.09 -0.173,0.9m253.591,-0.924c0.385,0.1 1.015,0.1 1.4,0c0.385,-0.101 0.07,-0.183 -0.7,-0.183c-0.77,0 -1.085,0.082 -0.7,0.183m-223.958,3.524c-0.001,1.98 0.066,2.84 0.15,1.912c0.084,-0.928 0.085,-2.548 0.003,-3.6c-0.083,-1.052 -0.152,-0.292 -0.153,1.688m-39.618,-0.4c0.002,1.32 0.077,1.812 0.166,1.093c0.089,-0.719 0.087,-1.799 -0.004,-2.4c-0.091,-0.601 -0.164,-0.013 -0.162,1.307m-84.023,-0.4c0.004,0.88 0.086,1.193 0.182,0.695c0.096,-0.497 0.092,-1.217 -0.008,-1.6c-0.1,-0.382 -0.179,0.025 -0.174,0.905m65.992,2.6c0,0.77 0.082,1.085 0.183,0.7c0.1,-0.385 0.1,-1.015 0,-1.4c-0.101,-0.385 -0.183,-0.07 -0.183,0.7m263.6,2.4c0,0.77 0.082,1.085 0.183,0.7c0.1,-0.385 0.1,-1.015 0,-1.4c-0.101,-0.385 -0.183,-0.07 -0.183,0.7m-235.592,2.2c0.004,0.88 0.086,1.193 0.182,0.695c0.096,-0.497 0.092,-1.217 -0.008,-1.6c-0.1,-0.382 -0.179,0.025 -0.174,0.905m238.699,3.525c0,0.069 0.585,0.654 1.3,1.3l1.3,1.175l-1.175,-1.3c-1.095,-1.212 -1.425,-1.484 -1.425,-1.175m-15.107,1.875c0,0.77 0.082,1.085 0.183,0.7c0.1,-0.385 0.1,-1.015 0,-1.4c-0.101,-0.385 -0.183,-0.07 -0.183,0.7m-45.002,2.689c0.71,0.088 1.97,0.09 2.8,0.003c0.83,-0.087 0.249,-0.159 -1.291,-0.161c-1.54,-0.002 -2.219,0.069 -1.509,0.158m55.009,1.605c1.045,0.082 2.755,0.082 3.8,0c1.045,-0.082 0.19,-0.15 -1.9,-0.15c-2.09,0 -2.945,0.068 -1.9,0.15m-345.166,2.906c0,1.65 0.071,2.325 0.157,1.5c0.087,-0.825 0.087,-2.175 0,-3c-0.086,-0.825 -0.157,-0.15 -0.157,1.5m125.959,2.4c0,0.77 0.082,1.085 0.183,0.7c0.1,-0.385 0.1,-1.015 0,-1.4c-0.101,-0.385 -0.183,-0.07 -0.183,0.7m-75.969,2.6c0.002,1.32 0.077,1.812 0.166,1.093c0.089,-0.719 0.087,-1.799 -0.004,-2.4c-0.091,-0.601 -0.164,-0.013 -0.162,1.307m66.022,1.6c0.001,2.2 0.068,3.049 0.149,1.887c0.081,-1.163 0.081,-2.963 -0.002,-4c-0.082,-1.038 -0.148,-0.087 -0.147,2.113m-4.809,2c0.002,1.76 0.072,2.43 0.156,1.489c0.085,-0.94 0.084,-2.38 -0.002,-3.2c-0.086,-0.819 -0.155,-0.049 -0.154,1.711m-9.989,1.4c0,2.31 0.066,3.255 0.147,2.1c0.081,-1.155 0.081,-3.045 0,-4.2c-0.081,-1.155 -0.147,-0.21 -0.147,2.1m24.78,-1.6c0,1.43 0.073,2.015 0.161,1.3c0.089,-0.715 0.089,-1.885 0,-2.6c-0.088,-0.715 -0.161,-0.13 -0.161,1.3m14.773,0.6c0.004,0.88 0.086,1.193 0.182,0.695c0.096,-0.497 0.092,-1.217 -0.008,-1.6c-0.1,-0.382 -0.179,0.025 -0.174,0.905m181.099,1.2c0,1.503 0.123,2.611 0.273,2.461c0.282,-0.283 0.188,-4.733 -0.107,-5.028c-0.091,-0.091 -0.166,1.064 -0.166,2.567m-254.269,2.4c0.002,1.54 0.074,2.121 0.161,1.291c0.087,-0.83 0.085,-2.09 -0.003,-2.8c-0.089,-0.71 -0.16,-0.031 -0.158,1.509m73.136,0.675c-0.064,1.798 -0.12,1.881 -1.367,2.036l-1.3,0.161l1.313,0.064c1.522,0.074 1.808,-0.395 1.581,-2.594c-0.154,-1.485 -0.162,-1.472 -0.227,0.333m-18.367,2.201c0.385,0.1 1.015,0.1 1.4,0c0.385,-0.101 0.07,-0.183 -0.7,-0.183c-0.77,0 -1.085,0.082 -0.7,0.183m10.2,0.017c0.935,0.084 2.465,0.084 3.4,0c0.935,-0.084 0.17,-0.153 -1.7,-0.153c-1.87,0 -2.635,0.069 -1.7,0.153m177.4,0.401c1.045,0.082 2.755,0.082 3.8,0c1.045,-0.082 0.19,-0.15 -1.9,-0.15c-2.09,0 -2.945,0.068 -1.9,0.15m44.2,0.399c0.935,0.084 2.465,0.084 3.4,0c0.935,-0.084 0.17,-0.153 -1.7,-0.153c-1.87,0 -2.635,0.069 -1.7,0.153m-88.6,0.394c0.605,0.091 1.595,0.091 2.2,0c0.605,-0.092 0.11,-0.167 -1.1,-0.167c-1.21,0 -1.705,0.075 -1.1,0.167m-166,9.989c0.385,0.1 1.015,0.1 1.4,0c0.385,-0.101 0.07,-0.183 -0.7,-0.183c-0.77,0 -1.085,0.082 -0.7,0.183m115.407,2.414c0.719,0.089 1.799,0.087 2.4,-0.004c0.601,-0.091 0.013,-0.164 -1.307,-0.162c-1.32,0.002 -1.812,0.077 -1.093,0.166m46.198,0.397c0.609,0.092 1.509,0.09 2,-0.005c0.492,-0.095 -0.005,-0.171 -1.105,-0.168c-1.1,0.003 -1.503,0.081 -0.895,0.173m-163.205,0.789c0.385,0.1 1.015,0.1 1.4,0c0.385,-0.101 0.07,-0.183 -0.7,-0.183c-0.77,0 -1.085,0.082 -0.7,0.183m116.465,7.924c0.001,3.96 0.061,5.526 0.133,3.48c0.073,-2.046 0.073,-5.286 0,-7.2c-0.074,-1.914 -0.133,-0.24 -0.133,3.72m100.786,-1.4c0,2.53 0.065,3.565 0.145,2.3c0.079,-1.265 0.079,-3.335 0,-4.6c-0.08,-1.265 -0.145,-0.23 -0.145,2.3m1.173,-0.2c0.002,1.32 0.077,1.812 0.166,1.093c0.089,-0.719 0.087,-1.799 -0.004,-2.4c-0.091,-0.601 -0.164,-0.013 -0.162,1.307m-56,0.8c0.002,1.32 0.077,1.812 0.166,1.093c0.089,-0.719 0.087,-1.799 -0.004,-2.4c-0.091,-0.601 -0.164,-0.013 -0.162,1.307m35.996,1c0,1.21 0.075,1.705 0.167,1.1c0.091,-0.605 0.091,-1.595 0,-2.2c-0.092,-0.605 -0.167,-0.11 -0.167,1.1m32.414,3.2c0,1.65 0.071,2.325 0.157,1.5c0.087,-0.825 0.087,-2.175 0,-3c-0.086,-0.825 -0.157,-0.15 -0.157,1.5m13.206,2.8c0,1.87 0.069,2.635 0.153,1.7c0.084,-0.935 0.084,-2.465 0,-3.4c-0.084,-0.935 -0.153,-0.17 -0.153,1.7m-0.235,4.683c0.497,0.096 1.217,0.092 1.6,-0.008c0.382,-0.1 -0.025,-0.179 -0.905,-0.174c-0.88,0.004 -1.193,0.086 -0.695,0.182m-255.805,0.393c0.385,0.1 1.015,0.1 1.4,0c0.385,-0.101 0.07,-0.183 -0.7,-0.183c-0.77,0 -1.085,0.082 -0.7,0.183m11.4,0.013c0.715,0.089 1.885,0.089 2.6,0c0.715,-0.088 0.13,-0.161 -1.3,-0.161c-1.43,0 -2.015,0.073 -1.3,0.161" id="path4"/>
  </g>
 </g>
</svg>